<?xml version="1.0" encoding="UTF-8"?>
<svg id="Layer_1" xmlns="http://www.w3.org/2000/svg" version="1.1" viewBox="0 0 425.2 99.21">
  <!-- Generator: Adobe Illustrator 29.4.0, SVG Export Plug-In . SVG Version: 2.1.0 Build 152)  -->
  <defs>
    <style>
      .st0 {
        fill: #c6913a;
      }

      .st1 {
        fill: #523a15;
      }

      .st2 {
        fill: #a4752d;
      }

      .st3 {
        fill: #684a1a;
      }

      .st4 {
        fill: #92652d;
      }

      .st5 {
        fill: #353e28;
      }

      .st6 {
        fill: #3c2103;
      }

      .st7 {
        fill: #7e5720;
      }

      .st8 {
        fill: #39250a;
      }

      .st9 {
        fill: #684b1b;
      }

      .st10 {
        fill: #593a0f;
      }

      .st11 {
        fill: #35280f;
      }

      .st12 {
        fill: #e7de90;
      }

      .st13 {
        fill: #c08834;
      }

      .st14 {
        fill: #543104;
      }

      .st15 {
        fill: #be8934;
      }

      .st16 {
        fill: #38290d;
      }

      .st17 {
        fill: #a3571f;
      }

      .st18 {
        fill: #634618;
      }

      .st19 {
        fill: #543c13;
      }

      .st20 {
        fill: #76521e;
      }

      .st21 {
        fill: #684b16;
      }

      .st22 {
        fill: #553b15;
      }

      .st23 {
        fill: #936626;
      }

      .st24 {
        fill: #f4d68f;
      }

      .st25 {
        fill: #38280c;
      }

      .st26 {
        fill: #543208;
      }

      .st27 {
        fill: #38290f;
      }

      .st28 {
        fill: #402a08;
      }

      .st29 {
        fill: #3c1e03;
      }

      .st30 {
        fill: #453110;
      }

      .st31 {
        fill: #50340a;
      }

      .st32 {
        fill: #b3733b;
      }

      .st33 {
        fill: #523b15;
      }

      .st34 {
        fill: #613800;
      }

      .st35 {
        fill: #391f02;
      }

      .st36 {
        fill: #503a14;
      }

      .st37 {
        fill: #a17129;
      }

      .st38 {
        fill: #a8762b;
      }

      .st39 {
        fill: #d3be5f;
      }

      .st40 {
        fill: #4d2e05;
      }

      .st41 {
        fill: #e0cb7e;
      }

      .st42 {
        fill: #4e3308;
      }

      .st43 {
        fill: #7c5620;
      }

      .st44 {
        fill: #805921;
      }

      .st45 {
        fill: #513b14;
      }

      .st46 {
        fill: #4c290e;
      }

      .st47 {
        fill: #3f260b;
      }

      .st48 {
        fill: #614519;
      }

      .st49 {
        fill: #a87629;
      }

      .st50 {
        fill: #d3b370;
      }

      .st51 {
        fill: #3a280d;
      }

      .st52 {
        fill: #472f06;
      }

      .st53 {
        fill: #533408;
      }

      .st54 {
        fill: #4a2c0c;
      }

      .st55 {
        fill: #aa772a;
      }

      .st56 {
        fill: #604418;
      }

      .st57 {
        fill: #b07d2d;
      }

      .st58 {
        fill: #59330b;
      }

      .st59 {
        fill: #f4d693;
      }

      .st60 {
        fill: #432a06;
      }

      .st61 {
        fill: #b58236;
      }

      .st62 {
        fill: #bc8431;
      }

      .st63 {
        fill: #a17227;
      }

      .st64 {
        fill: #886025;
      }

      .st65 {
        fill: #374129;
      }

      .st66 {
        fill: #4d3106;
      }

      .st67 {
        fill: #5f4116;
      }

      .st68 {
        fill: #efdf99;
      }

      .st69 {
        fill: #f9e49f;
      }

      .st70 {
        fill: #65471b;
      }

      .st71 {
        fill: #674713;
      }

      .st72 {
        fill: #704d1a;
      }

      .st73 {
        fill: #825821;
      }

      .st74 {
        fill: #3c2709;
      }

      .st75 {
        fill: #7f5725;
      }

      .st76 {
        fill: #39270b;
      }

      .st77 {
        fill: #331b07;
      }

      .st78 {
        fill: #3f2b08;
      }

      .st79 {
        fill: #77521d;
      }

      .st80 {
        fill: #341d07;
      }

      .st81 {
        fill: #5a3d0c;
      }

      .st82 {
        fill: #38270a;
      }

      .st83 {
        fill: #563d15;
      }

      .st84 {
        fill: #402407;
      }

      .st85 {
        fill: #7b5522;
      }

      .st86 {
        fill: #a6762b;
      }

      .st87 {
        fill: #ac7343;
      }

      .st88 {
        fill: #623a0f;
      }

      .st89 {
        fill: #ead089;
      }

      .st90 {
        fill: #8e754d;
      }

      .st91 {
        fill: #e9d18e;
      }

      .st92 {
        fill: #c08a35;
      }

      .st93 {
        fill: #9a6c25;
      }

      .st94 {
        fill: #5c350c;
      }

      .st95 {
        fill: #eecd89;
      }

      .st96 {
        fill: #482a03;
      }

      .st97 {
        fill: #76511d;
      }

      .st98 {
        fill: #9e6c25;
      }

      .st99 {
        fill: #bd8732;
      }

      .st100 {
        fill: #38290e;
      }

      .st101 {
        fill: #d3bd5f;
      }

      .st102 {
        fill: #5b4118;
      }

      .st103 {
        fill: #c9943d;
      }

      .st104 {
        fill: #563e16;
      }

      .st105 {
        fill: #bf8834;
      }

      .st106 {
        fill: #694b1b;
      }

      .st107 {
        fill: #4f2a03;
      }

      .st108 {
        fill: #906325;
      }

      .st109 {
        fill: #6b4106;
      }

      .st110 {
        fill: #592b02;
      }

      .st111 {
        fill: #b27f2f;
      }

      .st112 {
        fill: #654513;
      }

      .st113 {
        fill: #724a12;
      }

      .st114 {
        fill: #3d2706;
      }

      .st115 {
        fill: #693f08;
      }

      .st116 {
        fill: #684a1e;
      }

      .st117 {
        fill: #7a561f;
      }

      .st118 {
        fill: #d8c575;
      }

      .st119 {
        fill: #b88232;
      }

      .st120 {
        fill: #9f893c;
      }

      .st121 {
        fill: #4c310e;
      }

      .st122 {
        fill: #4c2d06;
      }

      .st123 {
        fill: #482f09;
      }

      .st124 {
        fill: #f3d792;
      }

      .st125 {
        fill: #713c0b;
      }

      .st126 {
        fill: #875e22;
      }

      .st127 {
        fill: #5c3e14;
      }

      .st128 {
        fill: #9e7028;
      }

      .st129 {
        fill: #634619;
      }

      .st130 {
        fill: #57380b;
      }

      .st131 {
        fill: #895e24;
      }

      .st132 {
        fill: #78541d;
      }

      .st133 {
        fill: #553f16;
      }

      .st134 {
        fill: #a6752a;
      }

      .st135 {
        fill: #5b4218;
      }

      .st136 {
        fill: #846124;
      }

      .st137 {
        fill: #986b25;
      }

      .st138 {
        fill: #bc8430;
      }

      .st139 {
        fill: #7c571f;
      }

      .st140 {
        fill: #482b06;
      }

      .st141 {
        fill: #714f20;
      }

      .st142 {
        fill: #9f7128;
      }

      .st143 {
        fill: #a77629;
      }

      .st144 {
        fill: #5e4318;
      }

      .st145 {
        fill: #855d23;
      }

      .st146 {
        fill: #96621f;
      }

      .st147 {
        fill: #452305;
      }

      .st148 {
        fill: #482604;
      }

      .st149 {
        fill: #3f2805;
      }

      .st150 {
        fill: #a1712a;
      }

      .st151 {
        fill: #53330a;
      }

      .st152 {
        fill: #c18b35;
      }

      .st153 {
        fill: #2e2e17;
      }

      .st154 {
        fill: #502f0a;
      }

      .st155 {
        fill: #382a11;
      }

      .st156 {
        fill: #2e2d16;
      }

      .st157 {
        fill: #3f2f09;
      }

      .st158 {
        fill: #683c06;
      }

      .st159 {
        fill: #462b06;
      }

      .st160 {
        fill: #9d783b;
      }

      .st161 {
        fill: #3a290c;
      }

      .st162 {
        fill: #b06f38;
      }

      .st163 {
        fill: #b88430;
      }

      .st164 {
        fill: #a48d3f;
      }

      .st165 {
        fill: #875e20;
      }

      .st166 {
        fill: #613c0b;
      }

      .st167 {
        fill: #482e0d;
      }

      .st168 {
        fill: #5d2f0a;
      }

      .st169 {
        fill: #69491a;
      }

      .st170 {
        fill: #9e6f28;
      }

      .st171 {
        fill: #6c3e05;
      }

      .st172 {
        fill: #5d3605;
      }

      .st173 {
        fill: #59a7a1;
      }

      .st174 {
        fill: #76521d;
      }

      .st175 {
        fill: #5a4119;
      }

      .st176 {
        fill: #f3d693;
      }

      .st177 {
        fill: #c58e38;
      }

      .st178 {
        fill: #ab772a;
      }

      .st179 {
        fill: #c18c39;
      }

      .st180 {
        fill: #a47327;
      }

      .st181 {
        fill: #053435;
      }

      .st182 {
        fill: #855c22;
      }

      .st183 {
        fill: #63451a;
      }

      .st184 {
        fill: #54380c;
      }
    </style>
  </defs>
  <g>
    <path class="st118" d="M240.94,43.1c.08-.03.1-.02.06.05-.15.06-.3.17-.4.21-1.43.6-2.61,1.18-3.71,2.25l-1.36,1.6c.99-1.86,2.98-3.23,5.01-4.01.07-.03.23-.09.29-.11,0-.15.07-.14.12,0h0Z"/>
    <g>
      <g>
        <path class="st23" d="M242.38,44.76l.15-.05c.71.49,1.45.85,2.21,1.07.02-.05.04-.05.06,0,.2-.24.5.09.17.27.06.12.16.08.29-.11.18-.21.35.11.23.27,0,.2.17.06.12-.05.07-.33.47-.21.39.15.4-.16.55.04.41.39.09.08.18.09.29,0l.12.05c-.03-.14.04-.36.23-.27l.3.02c1.7.76,3.53,1.16,5.41,1.21l.28.12.16-.07c1.86-.03,3.75-.07,5.55-.59h.34c.19.15.35.43.35.66v.1c.25.3-.49.65-.86.45-.47.18-.87.13-1.21-.13.2.24.14.34-.18.33-.01.05-.25.11-.34.12-.18.03-.73.06-.82-.07.02-.12.38-.3.36-.28-.14.16-.2.21-.39.04-.24.03-.47.02-.69-.04-.02.26-.14.28-.38.18-.22.18-.38.18-.48,0l-.62.15c-.42-.08-.8-.06-1.14.06l-.07.06c-.25-.11-.35-.11-.28,0,.09.11.23.16.43.14l.28.13c.41-.12.45.24.32.53-.17.14-.19.23-.07.41-.02.59.02.63.12.13.16,0,.24-.07.24-.21.46.06.81.43.81.94l-.12.07c-.38-.02-.8,0-.46-.37-.32.3-.67.04-.78.32-.13-.07-.03-.3-.09-.37-.03-.04-.5.23-.58.37l-.1.09c-.25-.22-.51-.38-.79-.47-.03.27-.37.31-.47.05.03-.49-.26-.49-.88,0-.33-.04-.09-.47.07-.6-.18-.13-.26-.06-.28.14-.32.28-.39-.33-.36-.54-.18.19-.37.25-.57.17l-.95-.81c-.19-.11-.32-.23-.39-.37,0-.16-.14-.16-.23-.21-.2.1-.71.03-.69-.21.12-.62-.19-.14-.26-.16-.03,0-.28-.47-.43-.16l-.11.06c-.29-.18-.58-.35-.88-.51-.11.12-.22.17-.33.13-.26,0,.14-.32.06-.43,0,0-.2.08-.29,0,0,0,.04-.18-.06-.32-.13.02-.27.04-.4.05-.32-.26-.7-.45-1.04-.7.07.07-.36.47-.4.43-.07-.08.32-.5.4-.43-.36-.27-.65-.71-1.21-.86,0-.15.36-.45.52-.43v-.04Z"/>
        <g>
          <path class="st141" d="M259.66,48.34c-.06.07-.02.14-.14.17-.56.1-1.68,0-2.34.05.49.04-.12-.43-.06-.48.14-.11.66.3.73.31.1.02.49-.12.68-.14.15-.02.29.1.34.09.03,0,.53-.25.55-.27.06-.07-.23-.19,0-.27.09.17.15.36.23.54h.01Z"/>
          <path class="st145" d="M252.42,49.18c.56.35.47,1.4.07,1.41-.18,0-.11-.83-.14-.93,0-.03-.26-.06-.23-.17,0-.03.37-.08.17-.45.08,0,.08.11.13.14h0Z"/>
          <path class="st26" d="M251.31,48.45c.05.2-.37.07-.48.05-.4-.07-.88-.2-1.19-.42l1.67.37Z"/>
          <path class="st172" d="M249.46,47.91c.11.09-.3.27-.4.21-.05-.16.39-.23.4-.21Z"/>
          <g>
            <path class="st158" d="M244.11,46.74c.19-.15.27-.23.4-.05-.21.2-1.02.54-.4.05Z"/>
            <path class="st58" d="M246.81,46.74c-.57.35-.39-.03-.4-.05.18-.08.3-.16.4.05Z"/>
          </g>
          <g>
            <path class="st82" d="M242.67,44.49l2.07,1.28s-.12.1-.2.09c-.7-.15-1.51-.82-2.16-1.1.1-.08.17-.17.29-.27Z"/>
            <path class="st66" d="M245.6,46.15c.45-.12-.36.67-.35.29,0-.06.17-.19.23-.24.03-.02.08-.04.12-.05h0Z"/>
            <path class="st140" d="M245.26,45.93c.18.32-.64.41-.29.11.08-.07.18-.11.29-.11Z"/>
          </g>
        </g>
      </g>
      <path class="st97" d="M267.21,48.07c-.35.18-.5.69-.66.86-.14.16-.48.19-.5.21-.1.12.28.13.15.27s-.64.14-.66.16c-.06.06.33.54-.81.37.24.28-.12.07-.06.27,0,.02.17-.03.17.03,0,.36-.42.06-.52-.08-.04,0-.08-.02-.09-.04-.33-.54-.74-1.23-1.02-1.78-.01-.03,0-.06.02-.11l.22-.16c.88-.22,1.71-.57,2.45-1.07l.27-.06c.38.35.69.81,1.04,1.12h0Z"/>
      <g>
        <path class="st79" d="M269.23,48.34c.15.57.41,1.37.46,1.93l.13.16c.05.12-.05,1.28-.12,1.4-.07.12-.13.11-.25.07-.35.45-.52,1.12-.6,1.73-.08.59-.54.6-.37,0-.1.29-.27.48-.51.58h-2.88l-.15-.06c-.19-.51-.4-.9-.86-1.26l.03-.13c.15-.15.38-.23.67-.24l-.1-.08c-.22.02-.33-.02-.35-.11l.11-.14c1.1-.28,2.3-.6,3.08-1.41-.33-.04-.2-.28.01-.41.42-.17.78-.34.95-.76s.36-.83.58-1.22l.16-.02v-.02Z"/>
        <path class="st128" d="M254.36,50.91c.08-.08.21-.14.39-.18.19-.33.35-.36.49-.1.12-.12.27-.14.43-.07.14-.42.44-.38.49.04.25-.26.67.04.54.36.26-.16.56-.18.91-.05.35-.16.69-.26,1.06-.07.14-.16.45-.22.55,0l.77-.2c.49-.21.56.23.49.59,0,0,0-.21.06-.21.16.19.15.55.12.8.08.12.09.31,0,.43l-.03.12-.6.04c.13.05.19.12.17.22-.13.2-.7.12-.92,0,.87.26-.11.61-.46.27v.07c-.21.03-.41.03-.62,0l.04.08-.06.11c-.47,0-.94.06-1.39.17.05.26-.18.26-.39.17-.16.21-.91.3-1,0-.13.06-.22.06-.28,0,0,.08-.03.14-.06.21-.13.05-.15.15-.06.3-.1.06-.22.12-.34.18h-.23c-.16-.02-.14-.05,0-.11.08-.07.1-.15-.06-.11-.19.09-.54-.33-.29-.43.18,0,.64.52.46-.16-.15-.11-.1.31-.23.16-.09-.1-.28-.55-.26-.7,0-.07.11-.22.15-.32-.14,0-.13-.06,0-.11.15-.06.25-.18.29-.32-.13-.1-.06-.31.12-.27.17-.14.24,0,.17.17.08,0,.15,0,.18.09.11-.03.13.02.06.11.16.16.07.27-.09.4l.07.11c-.31.51-.28.68.08.49-.06-.3.03-.44.35-.28l.04-.16c-.38-.05-.26-.3.07-.34-.12-.2-.12-.35,0-.45-.25-.09,0-.41.16-.51-.06-.13,0-.23.21-.29-.79,0-1.62,0-2.42-.05-.06,0-.12-.02-.19-.04s-.13-.05-.19-.07c-.12.25-1.04.07-.63-.16-.14-.24.65-.7.71-.28,0,.15.48,0,.61-.08.24-.03.22.11.11.26.22,0,.38.05.47.16l-.02.02Z"/>
        <path class="st3" d="M262.95,51.34v.08c.34-.1.63-.18.9,0,.3.11.53.45.26.68.15.03.23.1.23.2.12.04.24.05.35.11l-.04.1c-.32.03-.58.12-.77.27l.02.2c-.07.3-1.83.66-1.98.5.06-.27-.45-.28-.33-.03-.92.45-1.96.68-3.01.71h-.12c-.34-.06-.69-.06-1.04,0h-1.96c-.19-.09-.41-.53-.35-.7.51-.24.32.05.5.1.03,0,.62-.04.66-.05v-.16c.16-.04.61.29.35-.11l.56-.15,1.05-.07c.11-.07.28-.1.51-.08l.07-.09c.25,0,.5.05.75,0l-.29-.27h.92c-.92-.44.15-.28.46-.37.03-.05.07-.11.12-.16l.04-.14,1-.16c-.11-.23.04-.35.46-.34-.08-.04-.1-.09-.06-.17.07-.17.69-.12.75.05v.04Z"/>
        <path class="st36" d="M269.69,50.27l.12.08c.31-.37-.44-2.32-.35-2.44s1.48,2.17,1.54,2.29c.62,1.21.98,2.73,1.57,3.97h-.92s-.11-.03-.12-.06c-.04-.42-.01-.98.06-1.37.03,0,.05,0,.06-.02.03-.06-.43-1.24-.48-1.28,0,0-.16.09-.16.1,0,.84-.1,1.67-.31,2.49l-.14.15h-2.59c.21-.28.5-.6.46-.96.34,0,.08.71.12.75.15.17.34-1.24.36-1.3.09-.27.47-.7.44-1.11l.23.32c.09-.56.17-1.04.12-1.61h0Z"/>
        <path class="st137" d="M264.1,52.73l.6.59.38.85h-6.51c1.04-.11,2.01-.42,2.94-.75l-.17-.21c1.06-.08.57.16.63.21.07.06,1.75-.23,1.84-.48l-.35.03c.11-.1.27-.14.4-.19.03-.11.18-.17.23-.05h.01Z"/>
        <path class="st27" d="M241.22,46.15l.06.19c-.17.43-.3.87-.39,1.32l-.13.09c-.27.6-.4,1.24-.52,1.87-.04.32-.13.58-.12.91l.06.58c-.18.84-.23,1.65-.06,2.48.07.25.03.45-.11.57h-.46c-.11-2.59.24-5.14,1.09-7.6-.1-.13.15-.41.29-.48.1-.18.22-.28.35-.32.09.08-.03.28-.06.37v.02Z"/>
        <path class="st9" d="M240.13,50.54c.02.38.14.31.17.51.09.65.07,1.39.58,1.95.07-1.33.18.08.34.41.12.26.57.53.76.77h-1.96c.07-.58-.12-1.1-.12-1.69,0-.65.22-1.3.23-1.95h0Z"/>
        <path class="st174" d="M270.56,54.18c.18-1.02.49-2.01.29-3.05l.08.32c.38-.02-.1-.71-.08-.91.2.14,1.16,2.62,1.01,2.62-.1,0-.07-.36-.2-.37v1.39h-1.1Z"/>
        <path class="st112" d="M255.05,53.7c.16.07.28.32.23.48h-.63c-.08-.37.2-.12.23-.16.08-.13-.48-.45.17-.32h0Z"/>
        <path class="st134" d="M255.11,53.48l.35.7h-.17c-.08-.16-.16-.32-.23-.48-.02-.05-.16-.15-.12-.21,0-.02.14.02.17,0h0Z"/>
        <path class="st99" d="M247.74,48.5c.39.09,1.27,1.08,1.47,1.12.22.04.37-.32.54-.2.05.04-.03.73.18.59,0,0,0-.18.08-.22.34-.16.52.26.49.27-.03,0-.14-.08-.17-.05-.04.04-.21.4-.18.43.04.04.74-.65,1.01-.27.06.08-.05.61.31.38.03-.02-.25-.24.24-.14.34.07.41.41.74.47-.11.22.32.16.63.16.2.21-.08.68-.23.91.14.19-.8,1.24-.87,1.04-.03-.08.11-.3.1-.42,0-.15-.15-.13-.16-.17,0-.05.2-.27.12-.35-.26-.25-.64.88-.69.91-.09.06-.53-.11-.11-.32-.78.15,0-.47-.29-.78.32-.12.08-.31.12-.56-.57.35-.39,1.33-1.09,1.23.17-.09.03-.76-.06-.91,0,0-.15.07-.17.05-.18-.21.18-.35.03-.48-.28.14-.32.41-.49.62-.02.03-.16-.04-.18-.03-.03.05.13.21,0,.35-.13.15-.51-.06-.53-.09-.04-.07.13-.19.12-.24-.05-.15-.13.09-.17-.22,0-.11.17-.39.06-.45s-.23.22-.34.16c0,0,0-.12-.02-.14-.07-.04-.26-.12-.28-.16-.03-.11.08-.22.1-.31,0-.03-.13-.13-.09-.19,0,0,.24-.04.26-.1,0-.04.16-.72.14-.75-.14-.23-.71.68-.75.72s-.21,0-.22.03c-.03.03-.14.6-.41.64.14-.37-.1-.14-.12-.16-.03-.05-.06-.44-.07-.51,0-.11.12-.07.12-.08,0-.19-.12-.07-.11-.13,0-.05.11,0,.12-.06.04-.38.07-.81.05-1.2.4-.04.32-.47.75-.38h.02Z"/>
        <path class="st106" d="M241.22,46.15l.23.27c-.18-.18.12-.42.17-.37.04.04,0,.77.21,1.07.14.2.11-.09.2-.02.14.1.2.48.33.66.23.29.61.57.78.83.41.62.31.93.99,1.54.05.04-.03-.18.12-.05.12.1.19.39.29.43.02,0,.04-.21.14-.11.03.03.05.26.06.27.07.05.05-.14.23.05.06.31.13.62.24.92l-.07.1c-.15.03-.65-.38-.69-.37-.1,0-.06.14-.15.15-.43.04-.6-.28-.89-.53-.21-.07-.39-.19-.55-.37l-.07.02c-.39-.41-.76-.83-1.13-1.26-.06.02-.11,0-.16-.05-.16-.18-.66-.41-.69-.52-.02-.05-.06-.98-.06-1.03.04-.49.3-1.13.46-1.61v-.02Z"/>
        <path class="st111" d="M253.1,51.02c.88,0,1.75.05,2.68.08.07,0,.35-.21.26.05-.07.21-.28.17-.29.19-.02.04.14.12.12.16-.02.03-.35.08-.35.48-.05.21-.5.66-.52.21-.02-.03-.04-.07-.06-.11v-.11c.43-.39.26-.72-.19-.16h-.15c-.05.06-.07.2-.12.27.09.08.06.13-.09.17-.05.12-.12.17-.2.16,0,.03,0,.08,0,.11-.48.46.03-1.05-.2-1.12-.13-.04-.66.71-.69.8-.05.15.15.48-.12.64l-.03-.87c.43-.26-.12-.35-.28-.04l.23-.91h0Z"/>
        <g>
          <path class="st134" d="M241.86,45.18c.37-.14.97.45,1.22.73v.13c-.15.13-.15.13,0,0,.35.04.94.38,1.04.7-.02.11.08.08.29-.08l.12.02c.12-.04.19.04.2.24.4-.05.28.24.08.42v.08l.08.09c-.07.1-.25.8-.21.83.02.02.45-.37.19-.44-.05-.18,1.03-.87.65.09.29.09.33.31.13.65.07.08.53-.67.55-.72-.08-.04-.1-.09-.06-.18-.13-.32.33-.22.44,0,.36-.25.56.21.25.33.19.14.03.25-.18.3l-.15.19c.16.08.16.24,0,.46.31-.22.59-.46.85-.73h.16c.13-.18.47.09.23.21-.2.14-.4.29-.62.46l-.05-.03c.05.46.07,1.06-.14,1.47.05.63.25.35.39-.08.23-.04.41-.2.54-.48.76-.85.68.09.45.63-.15.05-.19.14-.14.26-.14.16-.07.29.2.39.45-.28.43.16.3.45.18.15.21.29.08.42.28.13.39.12.28-.19.03-.1.12-.15.23-.12l.29-.45c.33-.31.53-.03.29.29.09-.03.14,0,.21.04.13.09.16.67.16.83.08.12.45-.7.46-.77.28-.47.53-.67.61.04-.08.28-.16.56-.24.85.24,0,.4.11.18.27l.1.05.31-.64c.21-.46.78-.37.49.12.15.14.14.29.06.46l.71-.86c.07-.31.42-.46.55-.12l.36-.42c.33-.24.43.08.38.36l-.08.7s.05.06.11.07l.07.11c-.23.1.04.74.07.72.18-.24.42.09.36.29-.09.29-.49.14-.62-.11l-.03.07c-.22.04-.19.19.07.45l-.04.12h-.46c-.16-.08-.31-.19-.44-.33.1.12.14.23.1.33h-3.17l-.5-.38c.03-.3-.08-.19-.31.35l-.12.03h-.35l-.12-.07c-.04-.45-.52-1.18-.32-.18,0,.25-.54.21-.61,0,.02-.14-.26-1.08-.44-.72.09.31-.49.53-.54.21.19-.05-.21-.21-.24-.21,0,0-.22.04-.23.04-.16.09-.15.69-.15.85l-.12.07h-4.09c-.52-.2-.98-.67-.99-1.23-.26.3-.5-.33-.59-.58-.13-.61-.22-1.22-.27-1.83-.21-.16-.09-.77.12-.91.1-.64.27-1.27.52-1.87l.12.04.05.96.6.41v.14h.11c.17.38.31.59.71.79.3.37.59.69,1.06.87l.13-.04c.2.27.44.42.72.46.05-.13.12-.14.25-.13.11,0,.53.36.63.46h.11c-.13-.34-.22-.67-.28-1.02-.19.07-.35.05-.36-.16-.18,0-.31-.11-.4-.37-.19,0-.34-.11-.47-.31-.26-.41-.5-.83-.71-1.26-.47-.39-.8-.83-1-1.33l-.2-.02c-.24-.1-.28-.78-.29-1.01-.08.32-.35.22-.31-.09-.06-.07-.04-.2.06-.37.06-.25.31-.51.58-.59v.03Z"/>
          <g>
            <path class="st152" d="M246.07,54.18c.04-.38-.06-.66.16-.94.02-.02-.07-.12-.05-.13.05-.03.22.08.29.05,0,0,.02-.25.12-.21,0,0,.02.19.12.24.14.08.57-.06.17.29.4,0,.37-.08.35-.43.18.3.02-.31.41.08.2.2.26.8.29.83,0,0,.33.06.34.05.1-.08-.14-.66.03-.7.35-.07.52.57.55.86h-2.78Z"/>
            <path class="st15" d="M249.18,54.18c.08-.16.19-.64.37-.64.26,0,.14.25.15.26.13.1.49.09.4.38h-.92,0Z"/>
            <path class="st21" d="M254.08,53.53c-.03.2.2.31.29.43.14-.05.17.02.06.11v.11h-.35c-.19-.2-.55-.66,0-.64h0Z"/>
            <path class="st81" d="M253.27,54.18c-.69-.79.1-.51.35,0h-.35Z"/>
            <path class="st119" d="M246.12,47.75c.59.43.14.25.07.33-.09.1-.25.48-.33.58-.08.12-.37-.05-.03.21-.14-.08-.39.12-.4.11-.05-.04.24-.74.23-.78-.02-.08-.24-.07-.27-.16-.03-.07.12-.44.1-.46-.06-.06-.49.25-.52.29-.11.16.26-.07.17.13-.03.06-.51.54-.63.59.02-.3.13-.93.29-1.18.03-.05.29-.25.32-.26.06,0,.92.51,1.01.58v.02Z"/>
            <path class="st99" d="M246.81,48.07c.2.16.53.11.69.21-.16.15-1.11,1.13-1.33.91-.03-.03.2-.18.23-.25.05-.15-.35-.11.18-.21-.34-.15-.21-.22,0-.5.07-.09.16.14.22-.17h0Z"/>
            <path class="st42" d="M241.51,49.31l.17-.11,1.1,1.34c.11-.2.4.23.63.43-.55.09-.78-.54-1.06-.81-.11-.1-.36-.12-.48-.23-.15-.15-.28-.54-.36-.63h0Z"/>
            <path class="st127" d="M245.66,50.97s.39,1.08.35,1.12c-.44.36-.88-1.5-.35-1.12Z"/>
            <path class="st72" d="M240.25,49.63c.07-.65.14-1.3.52-1.87l-.52,1.87Z"/>
            <path class="st113" d="M246.64,51.45l.2,1.18c-.22-.17-.52-.99-.2-1.18Z"/>
            <path class="st154" d="M244.97,50.7c.08.08.73,1.66.17,1.02-.11-.13-.26-.83-.17-1.02Z"/>
            <path class="st115" d="M247.51,52.73c-.16.15-.57-.74-.46-.86.11-.13.5.82.46.86Z"/>
          </g>
        </g>
        <path class="st45" d="M269.23,48.34c-.36.44-.49,1.17-.84,1.61-.29.37-.69.38-.86.54-.47.44.62-.19-.03.45-.73.72-2.15,1.13-3.17,1.36-.82-.28-.25-.22-.23-.35.05-.3-.26-.42-.47-.48-.03,0-.04-.13-.09-.13-.15,0-.71.25-.95.16-.03-.15.2-.11.35-.16.06-.15.26-.21.58-.2l-.03-.15c.25-.22.53-.41.83-.57-.03-.11-.03-.2,0-.27.08-.05.16-.02.25.08,0-.39.24-.41.59-.37.27-.02.3-.04.25-.29.15-.12.36-.19.64-.21-.29-.27-.01-.35.26-.42.19-.15.35-.36.46-.62.13-.24.28-.33.43-.27v-.16c0-.12.08-.23.22-.35.16-.37.39-.66.69-.88,0-.27.05-.66.35-.29.01-.05.07-.07.12-.08.19.66.47,1.41.63,2.03l.02.02Z"/>
        <path class="st20" d="M268.6,46.31l-.06.86c-.11,0-.11-1.02-.29-.8-.02.03.04.26-.03.37-.07.12-.26.16-.32.24-.2.29-.35.77-.69.94-.03,0-.06.02-.07,0-.16-.15-.63-.64-.71-.8,0,0,.01-.03.04-.06-.04-.08-.06-.15-.12-.21.46.02,1.76-1.43,1.88-1.44.26-.02.32.75.37.91h0Z"/>
        <path class="st31" d="M264.68,52.41c.25-.05.88-.19,1.04-.05-.52.19-1.08.23-1.61.38-.07.02-.19.04-.23.05-.12-.24.62-.34.81-.37h-.01Z"/>
        <path class="st134" d="M255.52,51.98c0,.47.45.47-.23.62.12.15.35-.09.26.3-.09.34-.33,0-.37.05-.08.09.21.49-.38.41-.39-.05.1-.56.09-.65,0-.05-.28,0-.17-.13.02-.02.28-.06.29-.37.19.3.23-.19.52-.21v-.02Z"/>
        <path class="st134" d="M254.59,51.82c.89-1.05.84.18.35.27-.6.11-.06-.29-.35-.27Z"/>
        <path class="st54" d="M258.8,52.89c.24.26-.44.19-.58.16-1.05-.19.31-.16.58-.16Z"/>
        <path class="st134" d="M254.48,52.09c.43.32,0,.15-.02.16-.14.09-.02.32-.27.16.05-.11.18-.17.29-.32h0Z"/>
        <path class="st50" d="M260.76,52.09v.16s-.09,0-.11,0v-.43l.06-.11c.19-.02.23.31.06.37h-.01Z"/>
        <path class="st134" d="M254.36,53.96c.18-.47.37.27.06.11,0-.03-.04-.08-.06-.11Z"/>
        <path class="st117" d="M263.12,48.34s.09,0,.11.03c.45.56.83,1.42,1.1,2.06-.03.29-.67.45-.72.59-.02.06.15.17.09.21-.03.02-.49.02-.75.11l-.75-.05c-.07.07-.19.07-.34.03-.39.21-.51.17-.6-.25.01-.12-.37-.28-.4-.26.03.26-.02.44-.15.54-.12-.9-.36-1.78-.69-2.62l.04-.11,2.95-.36.12.09h-.01Z"/>
        <path class="st93" d="M260.7,51.34c0-.16.04-.41.04-.61,0-.06-.12-.11-.1-.14s.58.24.61.26c.16.13.17.47.23.48.19.03.22-.27.72-.05.02,0,.31.21.29.27l-.63.05c-.05.18.32.12.35.16.1.14-1.34.21-1.44.32.01-.16-.06-.32-.06-.37v-.37h-.01Z"/>
        <g>
          <path class="st145" d="M252.69,48.72c0-.38.84-.09,1.06-.11.26,0,.52-.19.69-.2.13,0,.15.15.18.15.14,0,.23-.3.55-.05.09-.72.15-.29.18-.28.29.12.44.02.65.04.18.02.04.21.43.03-.01.07-.16.12-.12.21.01.02.19-.05.17.05l-.46.05c.16.22.62.11.88,0h2.82l.1.11c.09.02.12.07.14.14.25.7.47,1.33.6,2.07,0,.03-.02.06-.05.1l-.06.21c-.03-.1.01-.52-.15-.54-.13-.02-1.09.27-1.15.27-.16,0-.05-.15-.09-.16-.31-.04-.35.16-.37.16-.09,0-.23-.14-.5-.13-.29.02-.49.17-.6.18-.08,0-.34-.1-.62-.09-.08,0-.28.25-.44.09-.02-.02.27-.31-.2-.43-.12-.03-.06.35-.17.32-.15-.04-.12-.87-.34-.43s.14.18.2.43c-.57,0-.32-.2-.34-.21-.32-.21-.41.15-.52.11,0,0-.08-.24-.15-.27-.08-.04,0,.42-.66.38.05-.29-.22-.97-.58-.75v-.27c-.14.55-.19.21-.29.27-.03.02,0,.3-.03.32-.38.36-.26-.43-.28-.51-.02-.07-.15-.07-.15-.08-.03-.18.23-.02,0-.32.36.12.31-.42.23-.48,0,0-.15.08-.28.02-.14-.06-.2-.18-.22-.18-.2-.04-.56.29-.43-.16l.03-.07c.3.12.56.18.78.17,0-.15.32-.12.46-.11.19,0,.38.06.57.19-.06-.02-.07-.08-.06-.14,0-.08-.08-.12-.29-.11-.07.06-.16.06-.29,0-.23.08-.48.1-.75.05-.07.08-.16.05-.12-.05h.04Z"/>
          <g>
            <path class="st60" d="M259.84,48.72l-2.91-.05.03.11c-.21.03-.77.12-.95.05-.02,0,.02-.21.03-.21.05-.02.96-.04,1.15-.05.07-.13.11-.16.15,0l.05-.1c.81.06,1.56.03,2.27-.1.06.13.12.24.17.37h.01Z"/>
            <path class="st14" d="M252.69,48.72s.07.04.12.05c.18-.03.3,0,.35.11.18.2-.76-.09-.81-.11-.1-.03-.27-.04-.23-.16.24-.07.4.06.58.11h-.01Z"/>
            <path class="st60" d="M255.92,48.82c-.14.2-1.01.02-1.18-.05-.06-.03-.11.04-.08-.11.48-.13.8.16,1.27.16h-.01Z"/>
            <path class="st151" d="M253.84,48.72c.19-.02.29,0,.29.11.07.03.53.25.49.38-.4-.04-.67-.28-1.01-.43-.08.02-.1,0-.06-.05.06,0,.07-.05.29,0h0Z"/>
            <path class="st23" d="M253.56,48.72s.04.04.06.05c-.07.04-.41.11-.46.11-.14,0-.26-.09-.35-.11.28-.09.47-.07.75-.05h0Z"/>
            <path class="st23" d="M253.84,48.72c.24-.06.79-.18.29.11-.05-.02-.27-.1-.29-.11Z"/>
          </g>
        </g>
      </g>
      <path class="st44" d="M261.62,46.58c.35.36.8.74,1.04,1.18.07.07.27.26.24.34-.07.18-2.54.43-2.91.38l-.15-.13c-.17-.38-.37-.76-.58-1.12-.16-.31.58-.49.61-.16l1.17-.45.12.07c.12-.04.33,0,.46-.11Z"/>
      <path class="st51" d="M263.12,48.34l-3.11.37c-.05-.12-.12-.25-.17-.37.33.14,2.91-.21,3-.32,0,0-.13-.19-.17-.27.25.12.33.4.46.59h0Z"/>
      <g>
        <path class="st25" d="M238.75,38.6c0-2.84.84-4.74,2.4-7.11.2-.31,1.33-1.6,1.34-1.81,0-.15-.33-1.37-.39-1.66-.09-.46.15-.56-.27-1.08-.65-.81-1.27-.39-1.63-.62-.49-.32.33-1.17.63-1.39,1.91-1.38,5.28-1.63,7.56-1.09.47.11,1.85.73,2.03.74.25.01,1.11-.21,1.55-.22,4.16-.12,7.27.22,11.13,1.65.27.1.91.51,1.09.54.44.07,1.19-.17,1.66-.15,1.99.05,6.9,2.26,7.21,4.28.16,1.06-.65.74-1.29.9-.9.23-1.09,1.55-1.47,2.22-.12.21-.64.67-.66.83-.02.12.41,1.25.45,1.49.39,2.26.47,4.27-.25,6.51-.18.57-1.13,2.1-1.14,2.43,0,.1.45,1.78.51,1.94.2.52,1.36,1.76,1.73,2.36.91,1.49,1.44,3.21,2.03,4.83h-.4c-.28-.3-.47-.67-.58-1.12-.5-1.75-1.29-3.32-2.35-4.78.17.57.29,1.15.36,1.73.03.27-.15.62-.3.26l-.13-.1c-.09-.53-.22-1.05-.38-1.56l.05-.26-.16-.15c-.24-.62-.39-1.25-.48-1.89l-.12-.03c0-.07-.15-.79-.22-.76-.52.54-1.09,1.01-1.72,1.41l-.07.13c-.24-.09-.53-.32-.63-.54-.08-.07-.04-.09.06-.05l.05-.06c.43-.06.82-.26,1.16-.58h.18v-.14c.32-.26.58-.57.78-.92h.14v-.21c.44-.47.73-.99.9-1.57l.13-.1c.27-.69.44-1.41.5-2.16l.14-.14-.07-.34c.16-1.19.28-2.51-.61-3.48-.11-.36.33-.27.44-.02-.12-.73-.34-1.46-.55-2.17l.09-.09c0-.11.03-.17.12-.16v-.09c.59-.63.92-1.26,1.14-2.07.21-.44.58-.75,1.12-.94.14-.19-3.17-1.78-3.59-1.81l-.06-.12c-.15-.05-.31-.08-.48-.08l-.04-.08c-.28.03-.51,0-.69-.11-.45-.08-.92-.03-1.37.02-.06-.06-.14-.08-.24-.07-.13.15-.84.24-.92.09-.13-.25.83-.54.99-.36.26-.08.49-.08.68,0,.55-.21,1.36-.03,1.95.11,1.55.37,2.9,1.16,4.11,2.02,1.22.66.53-.56.1-1.02-2.06-2.22-5.66-3.4-8.78-2.67l-.32-.04c-.04-.13,0-.13.12-.05-.02-.04-.02-.08,0-.12l.53-.19c-.37-.16-.75-.3-1.14-.42l-.03-.13c-.61-.05-1.34-.32-1.84-.64-.07,0-.14,0-.19.06-.47-.23-.92-.29-1.37-.21l-.12-.06c-.09,0-.15-.03-.11-.11-.9-.15-1.8-.28-2.71-.4l-.18-.09c-.39.13-.89.12-1.27-.05-.61.15-1.35.14-1.96,0l-.1.11c-.63-.02-1.24.06-1.83.21l-.14-.06c-.26.12-.42.04-.67-.08-1.15-.67-2.65-.85-4.01-.84-1.85.02-4.05.42-5.25,1.8,1.38-.47,2.63-.85,4.17-.67.43.05,2.14.41,2.4.6.03.02.05.06.07.09.27.03.61.34.25.47-.15.05-1.05-.42-1.17-.52l-.18.06c-1.47-.27-3.27-.44-4.59.27.39.33.71.69.97,1.1.06.67.17,1.33.31,1.98.28-.26.58-.43.9-.51.11-.11.23-.06.25.09.02.23-.7.61-.92.71,0,.37-.22.67-.61.9-1.04,1.33-1.9,2.77-2.59,4.27l-.22.41.04.16c-.17.37-.24.77-.28,1.16l.4-.49c.15-.15.49-.46.65-.24l-.02.15c-.82.61-1.42,1.56-1.3,2.56l-.07.18.46-.02c.52.15-.06.21-.34.18-.08.13-.36.09-.46,0-.15-.02-.15-.07,0-.11v-.03Z"/>
        <path class="st118" d="M244.8,40.79s.03-.05.06,0c.14-.07.26-.07.35,0l.68-.04c.22.09.08.35-.11.2l-1.25.06-.05.06-2.73.03-.03-.1c-.11.04-.2.04-.26,0-.31.12-.88.2-1.24.2l-.15-.09c-.14.12-.32.21-.46.05-.09.16-.27.19-.4.05-1.93.3-3.68.84-5.3,1.87,1.36-1.15,3.4-1.76,5.19-2.03.07-.17.29-.2.4-.05.08-.18.56-.2.69-.05l.17-.09c.48,0,.96-.02,1.44-.02.25-.08.51-.13.77-.16l.07.11c.06-.18.77-.16.86,0,.23-.14.56-.17.78-.03.18-.02.35,0,.52.03h0Z"/>
        <path class="st16" d="M241.05,43.15h.17c.45.36.9.73,1.34,1.1v.13c.04.09-.19.34-.3.27-.13,0-.28-.05-.43-.17-.04.33-.17.62-.38.87-.02.22-.31.55-.52.64-.02.09-.06.14-.12.05.1-.5.64-1.46.58-1.94,0-.05-.7-.64-.81-.73-.04-.13.28-.25.4-.21.02-.05.04-.05.06,0h.01Z"/>
        <path class="st118" d="M238.75,38.71h.93c.08-.11.15-.05.22.05.31-.03.56-.03.87,0,.68.07,1.58.25,2.26.39.1.02.19.08.27.14h.66l.08.11c.57.06,1.3.33,1.82.57l.02.12c-.06.13-.11.13-.17,0-.32-.06-.63-.15-.95-.28l-1.12-.23-.12-.13-.64-.03-.06-.08c-.5.03-1.01-.03-1.54-.16-.42-.03-.81-.11-1.17-.26-.32.11-.76.14-1.04-.05-.08.15-.32.1-.35-.05-1.61-.06-3.23.04-4.75.54.69-.37,1.6-.56,2.39-.64.8-.08,1.59-.08,2.36,0h.03Z"/>
        <path class="st76" d="M239.61,41.17c.16.02.23.18.23.48.11.03.2.13.25.29.16.16.23.31.21.46.19-.08.68.5.59.63-.02.03-.04.05-.07.07,0,.1-.23.21-.29.11-.67-.52-1.06-1.23-1.33-1.98.14-.02.27-.04.4-.05h.01Z"/>
        <path class="st11" d="M239.09,38.87c.1.16.25.55.12.7l.13.11c.03.4.1.8.22,1.19l-.06.15c-.13.02-.28.03-.4.05l-.35-2.25c.15,0,.27.05.35.05h-.01Z"/>
        <path class="st118" d="M244.34,43.2v-.12c.13-.1,1.06-.54,1.14-.46.11.1.15.16,0,.25-.62.27-1.19.62-1.75.99l-.27.05c-.17.24-.39.42-.65.61l-.15-.02c.07.14-.12.34-.29.27-.18.15-.32.24-.52.43s-.39.39-.58.59c-.1.11-.19.31-.35.32v-.11c.17-.21.33-.45.52-.64.17-.29.36-.51.65-.71h.16c.1-.07.21-.19.29-.26.15-.4.67-.62,1.08-.77.1-.2.24-.3.42-.3l.28-.11h.02Z"/>
        <path class="st182" d="M265.83,28.7c-.19-.35-.59.07-.75-.05-.11-.08.23-.1-.23-.21-.3,0-.6.04-.89.13l-.09-.08-.46-.05c.48-.46.46-.16.72-.15.12,0,.48-.04.55-.17-.6-.44-.85.05-1.36.1-.71.07-.37-.24,0-.44.1-.06.49.08.42-.23-.09-.43-1.28-.11-.85-.45,2.58-.59,4.86-.24,7.11,1.03.78.44,2.67,1.79,2.69,2.7.01.96-1.72-.54-2.05-.72-1.51-.83-3.01-1.44-4.8-1.4h-.01Z"/>
        <path class="st7" d="M266.06,30.25c.21.07.42.12.64.15l.05.12.13.07c.23.05.84.19.39.36-.07.08-.1-.03-.09-.03.24.18.71.69.89.93l-.05.12.58.64c.04-.07.1-.02.12.05.28.14.33.6-.06.37l-.11.02c.42.45.63.92.63,1.42.07.19.77,2.55.55,2.57-.05,0-.33-.6-.49-.4,1.05,1.07.81,2.6.63,3.94-.13,0-.22-.09-.28-.29-.08.09-.17.13-.26.05-.14-.3-.32-.58-.53-.83-.02.03-.05.06-.07.05-.18-.02-.51-.45-.53-.64l.29-.19c-.33.28-.14-.24-.15-.48-.09-1.94-.42-6.48-2.1-7.73-.06-.05-.43-.05-.51-.14.14-.13.15-.12.35-.13h-.02Z"/>
        <path class="st131" d="M250.56,24.95c-.41.19-.08.1-.22.3-.21.27-.39.3-.41.72-.09-.11-.11-.09-.06.06l-.06.05c-.29-.34.03-1.1-.68-.63-.06.04-.04.22-.13.28-.06.04-.42.01-.46.03,0,0,0,.15,0,.16-.11.07-.25-.27-.38-.27-.23,0,.17.29-.43.11-.17-.04-.35-.11-.53-.21.21.09.31.19.3.32-.1,0-.12.03-.23,0-1.92-.48-2.73-.86-4.85-.47-.3.06-1.86.64-1.95.57-.14-.11.7-.81.81-.88,1.98-1.33,5.63-1.45,7.88-.69.45.15.87.54,1.39.55h0Z"/>
        <path class="st129" d="M262.37,26.18c-.11.2-.08.02-.05.04.22.16-.28.31-.46.28,0,.17-.07.19-.24.22-.34.27-.68.51-1.01.8-.06.05.03-.17-.09-.05-.06.11-.14.2-.23.27-.59.09-.95.8-1.33,1.18-.04.23-.12.34-.23.32,0,.04,0,.08-.01.11-.05.18-.93.87-1.2.9.03.04.04.09,0,.11l-.46.32c.04.17-.38.52-.58.48-.17.07-.32.18-.44.34l-.08-.02-.12-.08c-.1-.37.54-1.16.87-1.37-.03-.14,0-.16.12-.05l.13-.02c.4-.41.79-.87,1.12-1.32,0,0-.01-.03-.04-.06l.03-.22c.26-.41,1.54-2.33,1.86-2.43.04-.01.08-.02.13-.02-.07-.08-.02-.15.15-.2,0-.21.12-.2.31-.17.63.18,1.24.41,1.84.64h.01Z"/>
        <path class="st102" d="M255.86,24.74c1.04.07,2.08.25,3.11.38-.2.16-.11.2-.12.21.13.07.1.13-.06.11l.02.13c-.64.28-.9.69-1.17,1.27-.12.2-.29.39-.51.49l-.12-.07c.02-.14-.08-.05-.06.05.04.26-.43.69-.69.75-.1.26-.24.52-.44.78l-.14.03c.06.16.02.24-.12.21-.06.19-.13.3-.23.32l-.11-.08c-.14-.42.92-1.6,1.27-1.9-.27-.08-.3-.29-.08-.62l-.41-.08c-.19.28-.39.56-.58.84-.62.6-.63-.18-.5-.61-.27.91-.63,1.79-1.08,2.63l-.13.02c-.13-.02-.15-.14-.05-.36l.72-1.89c-.18-.12-.18-.33.02-.62l.41-.83c0-.25.08-.72.34-.68l.08-.03c.06-.26.26-.41.61-.45h.02Z"/>
        <path class="st56" d="M254.59,24.68c.1.13-.09.31-.23.21l-.05.18c-1.26,1.11-1.55,2.8-1.72,4.34l-.13.14c.11.26.12.54.03.84.05.02.08.04.08.06,0,.18-.5,1.42-.61,1.49l-.13-.03c.08-.95.08-1.79,0-2.75-.02-.17-.16-.13-.16-.14,0-.1.12-.02.11-.08-.04-.39-.19-.72-.17-1.18,0-.26.25-1.12.23-1.17-.02-.07-.16.05-.17.03-.24-.42.64-1.27.9-1.6,0-.01.29-.39.08-.33.65-.03,1.31-.02,1.96,0h0Z"/>
        <path class="st135" d="M243.07,34.05c.07-.16.91-.04,1.01.02.11.11.1.28-.03.51-.03.18-.2.25-.52.21-.32.03-1.04.02-1.28.06-.28.05-.59.38-.87.49-.3.12-.47,0-.9.31-.6.05-.77.75-1.21,1.02.09-.54.12-1.11.4-1.61.12-.22.22-.1.23-.11.02-.03-.09-.17-.03-.22.39-.35,1.59-.82,2.14-.85.5-.03.65.09,1.07.16h0Z"/>
        <path class="st33" d="M268.19,38.92c.2.19.37.38.55.59v-.21c.35.26.48.66.69,1.02.17-.12-.17-.34-.09-.43.13-.13.48.62.52.7-.09.64-.17,1.43-.43,2.09-.04.1-.1.17-.2.21l-.11-.11c.03-.36-.11-.75-.34-1.02-.34.55-.74-.62-.71-.9l-.16-.04c-.53-.71-1.2-1.33-1.94-1.85l-.03-.15-.46-.32c-.08.07-.12.03-.06-.05.24-.22.74.06.99.23.52.55,1.05,1.1,1.59,1.64.05-.04.23-1.05.05-1.16-.34-.33-.66-.67-.97-1.03l.07-.11c.36.27.71.61,1.04.91h0Z"/>
        <path class="st43" d="M267.16,42.88l-.05-.17.84-1.85.13-.02c.08.12.41.94.46.96.27.13.01-.8.49.11.18.34.25.58.2.97-.09.74-.61,1.29-1.04,1.87l-.13-.03-.35-1.2-.59-.51.03-.14h.01Z"/>
        <path class="st104" d="M267.16,42.88c.2.25.44.37.66.59l.38,1.28c-.38.51-.35.62-.92,1.07-.3.16-.47-.11-.46-.38-.18.04-.2-.12-.21-.26,0-.29-.03-.57-.1-.85l.08-.12s0-.09-.12-.21c-.01-.07.02-.12.11-.16l-.1-.14c-.19-.11-.27-.23-.24-.35-.17,0-.51-.37-.61-.52l.04-.13c-.05-.26.33-.17.46,0,.15.37.9.7.68.05l-.51-.71c-.13-.14-.14-.26-.04-.34.17.02.31.12.42.32.2.23.5.59.5.86h-.02Z"/>
        <path class="st132" d="M266.58,44.22c.18.4.08.73.17,1.18l.17-.21c.02.38-.07.57.35.64-.31.24-1.01.82-1.38.64-.19-.04-.59-.38-.67-.56-.02-.41-.15-.78-.37-1.1-.01-.04-.04-.1,0-.12.14-.1,1.06-.68,1.17-.71l.16.03c.14-.05.36.08.4.21h0Z"/>
        <path class="st118" d="M257.88,42.56c.39,0,.74.02,1.11.18,1.15.4,2.27.85,3.37,1.37l.25.22.14-.02c.39.25.81.48,1.23.69v.14c.72.32,1.34.78,1.85,1.39.21.18.41.37.63.54.14.29.56.58.75.86.05.07.1.16.12.24-.04.08-.1-.06-.12-.08-.06,0-.12,0-.18,0-.08-.04-.74-.8-.84-.94l-.02-.17c-.16.07-.41-.11-.35-.27l-.23-.05c-.74-.6-1.51-1.15-2.31-1.67l-.05-.1-.28-.03c-.95-.54-1.96-.99-3-1.35-.27-.26-.83-.4-1.22-.42-.18-.02-.35-.09-.46-.23-.23.07-.84-.07-.97-.23-.15-.19.57-.29.57-.03v-.03Z"/>
        <path class="st73" d="M262.37,26.18c.19.07,1.37.44,1.38.56,0,.05-.66.25-.75.29-.37-.38-.26.02-.29.03-.67.18-.5-.39-1.1-.35.16-.13.1-.25.17-.3.09-.06.36-.03.46-.08.04-.02-.19-.22.11-.16h.02Z"/>
        <path class="st1" d="M264.85,44.81c.76.43.03,1.17,1.04,1.66l-.06.05c-.59-.49-1.21-.95-1.84-1.39.07-.08.18-.08.34,0,.15-.08.32-.1.49-.06-.09-.11-.09-.2-.02-.27.02-.05.04-.05.06,0h-.01Z"/>
        <path class="st126" d="M260.53,25.54c-.3.06-.16.25-.17.26s-.2.03-.29.11c-.29-.09-.6-.18-.93-.19-.19-.03-.45-.09-.34-.29.02-.02.03-.08.06-.11.48-.28,1.15.07,1.67.21h0Z"/>
        <path class="st64" d="M255.86,24.74c0,.18-.25.09-.38.23-.09.1-.11.37-.28.46-.03-.08,0-.11-.03-.21h-.11c-.18.46-.64.5-.44-.06-.25-.05-.34-.14-.26-.26.08-.06.16-.14.23-.21.43.01.84.02,1.27.05Z"/>
        <path class="st87" d="M266.7,29.02c.25,0,.45.06.69.11,0,.14-.43.13-.52.05-.6.06-1.21.1-1.82.13l-.14-.08v-.05c.53-.23,1.2-.23,1.79-.16Z"/>
        <path class="st183" d="M266.7,29.02c-.62-.02-1.18.08-1.79.16.07-.17.23-.17.4-.16l-.23-.05c.54-.02,1.08-.11,1.61.05h.01Z"/>
        <path class="st118" d="M256.84,44.11c.06.02.11.04.15.08.78.64,1.51,1.52,2.03,2.39.03.04.04.1.05.15s.01.11.01.17c.22,0,.24.16.17.32.34.24.6.73.58,1.12.18.07.31.22.17.37.32.33.46.89.56,1.34s.12.84.13,1.29c.16.12.16.26,0,.37,0,.08-.01.11-.06.11,0-.29-.07-.53-.12-.8-.15-.88-.36-1.48-.69-2.3-.22-.04-.23-.19-.17-.37-.06,0-.11-.04-.16-.08-.01,0-.09-.31-.1-.38,0-.02,0-.05.03-.08-.11-.22-.23-.43-.35-.64l-.2-.12c-.29-.49-.62-.96-.98-1.42l-.03-.22c-.14.04-.24-.03-.17-.16-.24-.05-.36-.2-.35-.43-.08.06-.61-.43-.65-.51-.04-.1-.11-.29.05-.29.04,0,.07.06.08.1h.02Z"/>
        <path class="st143" d="M242.84,39.35c.19.09.42.13.69.11.75.15,1.54.23,2.19.64-.2.33-.52.45-.9.56l-.03.13c-.42,0-.87,0-1.3,0h-.86c-.21,0-.59.04-.84.05.1-.1.25-.17.46-.21l.02-.12c.36-.02.64-.07.85-.15-.81-.19-1.85-.18-2.57.25l-.08-.03c.06.14.04.15-.12.11.05.14,0,.22-.17.27-.23.02-.49.03-.69.05-.21-.46-.2-.96-.29-1.45v-.14c.08-.11.75-.51.92-.5.91.09,1.81.27,2.71.43h0Z"/>
        <path class="st92" d="M246.81,40.47l.2.06c.09-.08.14-.06.21.05.07.03.11.07.06.13-.22.17-.64.53-.06.31.25-.03.3.1.14.37.13.38.02.57-.41.66l-.25-.06c-.2.16-.39.2-.56.12-.21.22-1.17.69-1.27.25.04-.09.02-.19-.06-.28.21-.14.55-.19.81-.16.13-.03.02.06.02.05.12-.15.24-.21.44-.27.03-.12.25-.13.29,0-.1.14.29-.02.29-.11-.14-.09-.19-.06-.34.02l-.62.07.03.08c.08.08.04.11-.06.05l-.15.08c-1.57.26-3.09.7-4.58,1.21h-.12c0-.26-.36-.49-.52-.7-.07-.24.36-.86.57-1.01h.17c.13,0,.23.07.31.15.18-.14.41-.26.41.05.17,0,.31-.1.44-.27.18-.1,1.3-.19,1.41.05.29-.02.58-.04.87-.07-.09-.08-.17-.21-.04-.28l1.32-.06.17-.11c-.24,0-.51-.05-.75-.05.14-.06.42-.17.58-.11.28-.2.68-.25,1.04-.21h0Z"/>
        <path class="st163" d="M248.31,39.08c.43.02.12.7-.23.59-.09-.07-.13-.06-.12.05.03.03,0,.04-.06.05-.04.15-.18.26-.4.34.72.2.1.75-.29.46-.18,0-.28.05-.4-.11h.06v-.07c-.58-.08-1.17,0-1.79.29-.02.06-.1.09-.23.11h-.06c-.13-.16-.66.09-.63-.16.36.06.95-.16,1.25-.33.19-.11-.19-.22.3-.2h.17c.15,0,.7.24.17-.11.74.05.39-.21.16-.52,0-.02-.42-.07.14-.2.67-.16.53.31.95.32.08,0,.8-.2.86-.25.16-.14-.03-.09.15-.26h0Z"/>
        <path class="st57" d="M245.78,40.96l-1.27.11c-.08.11.26.26.17.32-.05.03-1.02.1-1.12.1-.06,0-.08-.16-.13-.16-.13,0-1.03.04-1.08.06-.17.05-.23.29-.46.32-.38.04-.19-.19-.2-.21-.04-.06-.18.14-.32.17-.12.02-.2-.32-.37,0l.06-.27c-.03-.18.11-.3.4-.37l4.32-.05v-.02Z"/>
        <path class="st18" d="M241.46,41.01c.07,0,.29-.04.29.05-.3-.05-.49.15-.69.32-.33.28-.53.66-.75,1.02-.18-.22-.41-.47-.46-.75-.13-.31-.1-.41.23-.54.49-.05.87-.13,1.38-.11h0Z"/>
        <path class="st122" d="M242.26,40.63c-.15.05-.3.17-.46.21-.54.03-1.08.05-1.61.11.02-.11.1-.19.17-.27.04-.06.1-.03.18.09.5-.04.99-.11,1.48-.2l.24.05h0Z"/>
        <path class="st160" d="M240.07,41.12c-.15.32-.3.12-.23.54l-.23-.48c.16-.02.3-.04.46-.05h0Z"/>
        <path class="st143" d="M245.66,40.58c.15-.02.19.02.12.11-.19.04-.37.14-.58.11h-.35c.06-.06.15-.07.23-.11.18-.03.35-.08.51-.16l.07.05h0Z"/>
        <path class="st179" d="M244.62,42.13c.05.16-.11.25-.48.27-.15.22-.34.38-.56.48-.26-.13-.46.09-.37.34-.28.3.52.52.33.14-.16-.38.59-.61.57-.21.09-.03.15-.04.22.05-.6.33-1.25.76-1.79,1.18l-1.5-1.23c1.01-.48,2.3-.88,3.44-1.06.04,0,.09,0,.14.04h0Z"/>
        <path class="st118" d="M245.66,41.81c.1.05.05.12-.06.11-.27.06-.54.1-.81.16,0,.15-.08.18-.17.05-1.32.28-2.31.53-3.57,1.02h-.06s-.03-.05-.06-.05c1.48-.66,3.12-1.02,4.73-1.28h0Z"/>
        <path class="st85" d="M242.26,44.65c-.25.21-.59.47-.81.7.34-.52.02-1.43.81-.7Z"/>
        <path class="st22" d="M240.13,38.92l-.92.64c-.02-.11-.2-.46-.12-.7.34.02.7.02,1.04.05h0Z"/>
        <path class="st130" d="M243.53,39.46l-.81.05.11-.16c.23.04.47.06.69.11h0Z"/>
        <path class="st103" d="M249.58,39.08l.11.07c0,.31.28.53.52.71.37.2.69.44.97.71-.02.18.03.19.15.04.64-.19,1.28-.38,1.93-.57.12-.12.25-.17.36-.17.08,0,.6.08.63.1.04.03.07.07.08.12-.05.18.03.28.24.28,0,.13.11.16.3.1.25.59.52.95,1.07,1.32.16.26.32.62-.15.56-.07.03-.64.43-.64.48.36-.15.73.16.88.42.15-.06.5.17.46.32.13-.03.25,0,.38.1.23-.11.45-.03.33.22.25-.02,1.02-.06,1.13.19.09.2-.4.53-.63.44-.16.51-.57.05-.3-.23-.16.15-.31.11-.45-.14l-.11-.05s-.12-.03-.11.03c0,.04.53.55.63.67.1.3-.15.31-.4.13.09.4-.51.14-.64-.11-.21-.44-.43-.04-.45.26.3.21.58.45.85.7.16.15.19.34.11.58.29.28.52.79-.12.53.36.33.27.51-.28.54l-.48.19c-.35.12-.41-.1-.25-.35.05-.05.26-.29.25-.31s-.24-.32-.25-.33c0,0-.27-.11-.28-.11-.04,0-.1.58-.07.64.47.19-.1.71-.32.36l-.08-.91s-.52.04-.45.2c-.34.45-.69-.48-.12-.45l-.09-.19c.02-.31-.07-.43-.25-.1-.64.26-.69.49-.15.7.57.41.17.64-.35.36v.17c.16.46.09.5-.42.42l-.1.09c-2.28-.06-3.93-.41-5.99-1.34-.18.05-.37-.02-.57-.18-.43-.38-.92-.62-1.46-.73-.08-.15-.17-.29-.28-.42l-.14-.04c-.19-.05-1.41-.78-1.4-.91.11-.09.2-.18.27-.28.66-.44,1.33-.87,2.07-1.18-.33,0-.89.31-1.21.48-.75.24-.25-.13-.29-.16-.03-.03-.81.18-.23.16.05.18-.15.08-.17.11-.02.02.27.31-.27.36-.19.02-.19-.15-.28-.19-.04-.02-.16.06-.22.04-.36-.11.16-.2.18-.22.11-.12-.02-.28.04-.36.15-.21.65-.28.15-.43l.4-.05c-.35.83.38-.12.42-.14.13-.07.48-.03.56-.18.04,0,.1-.04.17-.05l.35.05c-.34.29-.15.32.26.26.2-.03.66-.4.75-.42.02,0,.16.11.18.11s.21-.16.36-.2c.07-.02.27.14.48-.02-.15-.2.09-.06.17-.11.03-.02-.26-.42.06-.62-.17-.15-.47.29-.58-.11-.04-.14.38-.3.4-.46.92-.07.49-.42-.23-.43.28-.07.6-.18.92-.38.24-.1.5-.17.76-.2.03-.23.31-.3.53-.29.08-.14.26-.43.37-.21h.03Z"/>
        <path class="st61" d="M243.47,43.9c.1.09-.17.18-.17.27,0,.08,1.31.8,1.44.96-.19.15-.27.23.05.33.14.1.2.26,0,.32h-.06s-.09.03-.14.02c-.22-.05-1.69-.99-1.94-1.18v-.12c.31-.24.49-.37.81-.59h0Z"/>
        <path class="st2" d="M244.74,45.13c.35.02.27.3.29.31.12.06.47.08.68.2.44.25.76.57,1.33.82-.17.1-.02.14-.23.27-.15,0-.29-.02-.4-.05-.07-.1-.17-.18-.17-.19-.02-.04.19,0,.11-.13-.27-.06-.25.04-.43.11-.12-.36.14-.52-.32-.32.02.13,0,.14-.12.05-.15-.08,0-.25-.23-.27-.02.14-.17.17-.29.11.09-.2.07-.25-.17-.27.08-.28-.19-.26-.4-.32.21-.12-.12-.35.35-.32h0Z"/>
        <path class="st144" d="M267.16,38.01c.17.41.93.83,1.07,1.23.15.44-.19.86-.09,1.29-1.08-.58-1.32-2.02-2.71-2.09l-.22.02c-.63-.24-1.28-.44-1.94-.61l-.15-.16c-.15-.06-.09-.44.06-.48.02-.1.04-.14.12-.05.16-.05.55-.04.58-.05.02,0-.08-.15-.06-.16.47-.23,1.06.17,1.46.28,1.06.27.98.1,1.88.79h0Z"/>
        <path class="st62" d="M262.66,32.39c.1-.15.25-.11.29.05,0,.28.09.3.29.43.02.02.02.04,0,.05.08.06.11.08,0,.11.04.05.05.11.01.18l.56.3c.14-.17.47.16.46.32-.02.06-.13.19-.12.21.01.03.41.23.44.56,0,.04-.14.1-.13.19.02.17.21.5.15.58,0,0-.14-.07-.17-.03-.2.21.11.46.06.57h-.17c-.03.15.06.48-.09.7-.11.15-.41,0-.45,0-.02,0-.15.27-.38.11.24.28-.11.42-.17.05l.06.37s-.08.04-.12.05l-.12-.13c-.06-.67-.3-1.32-.65-1.9l.03-.17-.06-.27c.17.16.51-.04.5-.19,0-.16-.37-.22-.39-.24-.06-.05.29-.22.29-.35,0-.05-.21-.04-.17-.16.01-.05.31-.16.35-.13s-.28.22-.08.32c.28-.24.53.24.6-.29.03-.19-.11.06-.25.02-.34-.09-.42-.52-.45-.76,0-.04.13-.02.12-.06-.09-.31-.53-.14-.58-.19-.21-.19.17-.31.35-.32v.02Z"/>
        <path class="st4" d="M265.6,29.5h.4c-.02.1-.11.14-.27.13,1.02.08,1.95.38,2.78.9l.02.09c-.3.1-.42-.18-.69,0l-.13.06c-.48-.18-.98-.3-1.5-.37l-.04-.06c-.05-.27-1.05-.02-1.09-.05-.19-.17.45-.35.58-.27-.48-.14-.66-.41-.06-.43h0Z"/>
        <path class="st133" d="M259.03,30.46c.04.14.18.22.06.43l.12-.03c0,.12-.1.17-.17.24-.25.2-.5.43-.72.69-.52.35-.31-.23-.16-.51l.02-.13c.04-.07.11-.26.12-.27-.13-.11.09-.3.23-.21,0-.25.37-.46.52-.21h-.02Z"/>
        <g>
          <path class="st37" d="M261.62,26.72c.16-.14.28-.1.44,0,.18.19.49.46.61.09.16-.1.45.06.33.22-.04.02-.09.03-.12.05l.03.08c.43-.02,1.17.08.86.62-1.15.24-.74.56.16.08.88-.2,1.22.53.09.49-.15-.13-.5-.03-.22,0l.06.12v.11c.31-.09.64-.18.98-.16.14-.13.31-.05.36.12.23-.11.74-.21.62.15-.48.01-1.28,0-1.61.32.29.02.57-.04.86-.05.36,0,.3.06-.17.21.05.02.05.03,0,.05l.02.09c.14-.05.25-.02.32.07.19,0,.31.03.35.11-.4.1-.39.23.03.32,0,.15-.1.23-.34.25.16-.05,1.05-.1.94.12-.01.02-.03.05-.05.07-.01.08-.06.05-.12,0,0,.05-.02.11-.07.11.4.1.61.31.84.62,1.19,1.61,1.61,5.36,1.62,7.33,0,.08-.02.48-.1.4.12.13.08.33-.15.21-.05,0-.09,0-.12-.02-.24-.2-.5-.45-.72-.67-.07-.07-.14-.14-.2-.22l-.16.02c-.5-.39-1.1-.63-1.79-.72-.41-.21-.82-.31-1.23-.32.03.27-.54.3-.68.16-.11-.05-.16-.46.05-.36l.02-.07c.16-.05.32-.12.46-.21.34.17.47-.02.39-.57.02-.07.08-.11.14-.14-.13-.23-.14-.45.13-.59l-.13-.41c.18-.24.1-.46-.25-.66-.11-.13-.02-.34.17-.31.09,0,0-.13-.25-.35l.02-.08c-.22-.23-.49-.41-.81-.54-.23.14-.55-.32-.29-.43,0-.17.33-.02.32-.02-.24-.1-.48-.19-.73-.27l-.05-.13c.19-.05.17-.05-.04,0-.15-.11-.34-.17-.59-.15-.22,0-.34-.08-.35-.22.28-.06.56-.06.85-.01-.34-.03-.68-.04-1.02-.04-.26.27-.56.05-.46-.27.14-.16.37-.25.68-.25l-.05-.07c-.31-.04-.62.03-.93.2-.14-.04-.12-.12.07-.26-.01-.02-.02-.05-.02-.07,0-.06-.61.3-.67.45.09.18-.75.2-.78.18-.1-.07-.25-.25-.14-.34-.05-.02-.05-.03,0-.05.02-.18,0-.36-.09-.54l.09-.1c-.3-.16-.35-.47-.13-.75-.06-.29-.04-.56.07-.8l-.04-.12c.15-.21,1.04-1.33,1.3-1.12.02.02.04.04.06.06.09-.06.16-.15.23-.27-.02-.08.01-.12.09-.1.3-.31.63-.53,1-.65h.01Z"/>
          <g>
            <path class="st38" d="M258.97,28.91c-.06.51.01.77.17,1.18-.05-.23-.27-.4-.28-.08s.21.22.22.24c0,.03-.08.13-.06.21-.23-.05-.37.09-.52.21-.09-.12-.24-.12-.43-.01l-.09-.09-.02-.12c.52-.28.76-.64.7-1.08l.07-.14c.07-.07.13-.22.23-.32h0Z"/>
            <path class="st19" d="M262.49,32.02c.4.17.85.24,1.18.53.49.43-.31-.04-.72-.11-.1-.02-.19-.06-.29-.05-.19-.16-.33-.21-.17-.37h0Z"/>
            <path class="st59" d="M260.53,27.47c-.52.97-1.1,1.92-1.33,3,.07-.84.57-2.04,1.1-2.73.08-.11.12-.17.23-.27h0Z"/>
            <path class="st46" d="M261.34,31.59c.55-.02.88-.13,1.45.07.03.01.56.33.42.41-.51-.35-1.07-.44-1.7-.43-.04-.02-.12-.02-.17-.05Z"/>
            <path class="st94" d="M264.04,33.41c.13.11.24.27.34.4.03.16-.11.02-.11.03-.19-.24-.19-.21-.46-.32-.22-.09-.43-.19-.59-.36v-.12s.02-.07.01-.11c.29.08.63.23.81.48h0Z"/>
            <path class="st147" d="M259.95,31.32c-.11-.3,1-.75,1.19-.75.25.01-.36.3-.5.37-.14.08-.58.34-.69.37h0Z"/>
            <path class="st176" d="M262.32,27.73l-1.61,1.23c.37-.5.99-1.03,1.61-1.23Z"/>
            <path class="st10" d="M264.85,28.43c-.26-.04-1.13.37-1.3.32-.23-.07.24-.25.32-.27.25-.07.72-.12.98-.05h0Z"/>
            <path class="st95" d="M260.13,29.77c-.18.27-.37.66-.63.86.15-.32.36-.62.58-.91.08-.07.11-.04.06.05h0Z"/>
            <path class="st177" d="M264.04,33.41c-.2-.17-.55-.39-.81-.48,0,0-.1-.04,0-.05.17.11.75.22.81.54h0Z"/>
            <path class="st124" d="M260.13,29.77l-.06-.05c.12-.16.21-.37.4-.48-.06.2-.23.36-.35.54h.01Z"/>
          </g>
        </g>
        <path class="st38" d="M254.77,30.41c.08-.02.16.02.23.11.14-.3.36-.51.65-.63.02-.37.15-.52.4-.43.26-.69,1.03-1.92.96-.31v.12c-.31.23-.53.5-.68.79.17-.08.3-.09.4-.03-.25.48-.83.85-.75,1.45l.04.07c-.23.25-.34.49-.33.73l.11-.02c.3-.57.59.52.07.44-.17-.16-.37-.19-.59-.1-.07-.1-.15-.19-.23-.27-.18.62-.4,1.22-.68,1.8.26-.32.45-.21.54.33-.11-.28-.12-.35.15-.52.78-.48.73.26.68.78-.24.62-.45,1.24-.63,1.87.11.1.17.29,0,.34-.22-.08-.45-.15-.69-.21-.18-.02-.16-.14-.05-.25l-.07-.06c-.54.34-.41-.41-.28-.71l-.03-.13c.28-.55-.19-.13-.18.18-.22.43-.99.79-.73,0,.39-.09,0-.64-.22-.26-.04.12-.11.21-.22.26.05.02.05.04,0,.05-.02.3-.33.37-.43.07.03-.27-.02-.5-.13-.7-.27.31-.71.58-.49-.04-.07-.02-.1-.05-.1-.14h-.14c-.03-.18-.12-.23-.27-.16-.18-.03-.22-.18-.06-.27-.11-.15-.12-.35-.03-.61-.12-.03-.19-.08-.21-.17l.03-1.47c-.2,0-.4-.06-.28-.26.04-.06.3-.1.28-.09-.07.04-.22.02-.3-.06-.03-.03-.13-.63-.14-.73l-.1-.08.2-.78.13-.05s.12.02.11.06c-.02.11-.17-.57-.05-.65-.17.05-.36-.31-.17-.37.05,0,.18.08.23.05,0,0,0-.21.09-.21.11,0,.12.36.23.43.17.1.17-.28.31-.08-.27.22-.1.38-.12.58,0,.07-.16.06-.17.11,0,.1.15.13.15.21,0,.51-.03,1.03.09,1.53.27,0-.05-.37.33-.14.07.04-.11.21.19.09.14-.06.6-1.27.63-1.48.04-.27-.02-.6,0-.88.27-.11.33.32.27.52.18-.24.36.05.36.27.32.09.27.31.12.53.12-.03.24.05.34.24.17-.04.2.11.21.25l.37-.81c.2,0,.27.15.2.46.08-.26.22-.46.43-.6l.02.04Z"/>
        <path class="st38" d="M251.42,35.71c.12.05.07.13-.06.11-.1.16-.33.41-.52.27-.11-.16-.07-.29.12-.37.13-.16.18-.4.15-.7.13-.09.29-.15.37,0,.12.07.13.2.03.39.11.08.06.29-.09.3h0Z"/>
        <path class="st0" d="M248.54,29.77c.19-.14.36.34.32.32,0,0-.09-.26.03-.21,0,0,.08-.08.11-.05.02.01.25.25.26.27.05.06.53,1.24.66,1.12.04-.03-.34-.49.06-.43l.13.02c.06.23.09.31.28.4.24.13.2.64.23.7,0,.02.49-.09.22.21-.05.05-.27-.08-.22.11.06,0,.27-.02.29,0,.08.07-.06,1.54,0,1.61s.18-.14.23-.08c-.02.27-.1.56-.12.83l-.03.12c-.2.07-.3.23-.34.41-.13.78-.27,0-.26-.37l-.13-.13c-.15-1.69-1.69-3.03-3.56-2.64l-.18-.07c-.02-.11-.3-.31-.41-.31-.59,1.18-.9-.55-.18-.87.27-.14.48-.3.62-.5-.1.02-.16.01-.2-.09.15-.14.38-.19.69-.16.1-.03.24-.06.29-.16.11-.08.24-.06.4.05.25.03,1.02.34.81-.11h0Z"/>
        <path class="st13" d="M246.35,30.14l.69-.05c0,.1-.18.03-.23.13-.02.05.25-.03.17.13-.53-.14-.27,0-.47.13-.69.43-1.07.59-.8,1.48.21-.06.2-.37.35-.48.04-.03.16.06.19.05.19-.09.28-.24.58-.21.08.18-.37.22-.49.27l.21.16c.17-.08,1.31-.23,1.38-.21.08.03-.09.28.2.22-.5.11-1.2-.2-1.61.16l-.1.14c-1.07.34-1.76,1.27-2.05,2.24-.07.22-.18.32-.33.3-.26-.08.18-.23,0-.4-.09-.09-.77-.1-.98-.14-.09-.45.56-.5.58-.54.05-.19-.47-.23-.29-.37.14-.11.26.12.29.11.02,0,.13-.24.19-.31.03-.04.16.02.22-.04.02-.02-.04-.43-.06-.45-.09-.07-.28.14-.28-.13,0-.38.39-.41.44-.47.05-.05.36-.46.37-.48.06-.12.06-.24,0-.36.15-.1.35-.17.62-.19.32-.14.18-.01-.1.02-.03,0-.07-.02-.11-.05-.07-.36.29.02.67-.16s.14-.26-.09-.32c.12-.2.66-.3.86-.16v-.02Z"/>
        <path class="st30" d="M250.5,29.34c0,.11.16.31.17.37-.03.2-.05.4-.06.59l-.23.91c-.2-.03-.09.19-.12.21-.07.06-.27-.58-.29-.64-.16-.58-.3-1.36.52-1.45h0Z"/>
        <path class="st123" d="M247.74,25.75c.17.31-.11.1-.23.11l-.92-.59c.28,0,1.02.25,1.15.48Z"/>
        <g>
          <path class="st150" d="M252.63,24.68c.23,0,.24.13.02.39-.17.15-1.08,1.25-.92,1.38.11,0,.18.04.21.14-.15.51-.22,1.01-.21,1.52.25,1.22.45,2.56.1,3.79.02.26-.29.12-.35-.06-.03-.09.16,0,.04.11-.34.31-.4-.28-.4-.56v-.96c-.19-.13-.19-.29.02-.38l-.03-.32c-.16-.05-.22-.16-.26-.3-.17.11-.24.03-.33-.1l-.06.12c-.63.11-.47.82-.36,1.24l-.1.09-.07.11c.26.53-.15.53-.35.06-.16-.42-.38-.78-.67-1.08l-.07.02c-.24-.23-.33-.27-.28-.13.46.48-.68.4-.81.11-.16-.09-.33-.13-.52-.16,0,0,.03,0,.05.02s.04.05.06.08c.13.17-.17.32-.29.16-.54,0-1.06.09-1.56.24v.08c.68-.06.38.47-.13.48-.09-.13-.39-.12-.44,0-.08.08-.23.14-.44.17l.03.04c.43.11-.08.73-.28.92-.27.1-.69.42-.18.45.12.22.24.68-.16.67l-.19.31c.11.18,0,.3-.28.35-.15.08-.26.19-.35.35l-.1.09c-1.03-.39-2.15.11-3,.66.11.21-.11.27-.3.27.59-1.74,1.58-3.22,2.68-4.71.14-.18.45-.29.57-.55.11-.23.02-.46.04-.48,0-.02.11.06.17.03.24-.15,1.11-.61.64-.67-.11.03-.13.02-.06-.05v-.08c.34-.16.66-.33.98-.51-.03-.05,0-.1.12-.16.04-.05.1-.11.17-.16-.17.01-.24-.03-.23-.11-.03-.04-.03-.08,0-.12l1.74-.74-.75.23-.12-.07c-.09-.04-.19-.03-.3.04-.48-.16.42-.43.65-.4v-.07c-.06-.02-.05-.03,0-.05.09-.14.27-.21.52-.21.11-.06.14-.11.12-.16-.4-.15-.48-.24-.23-.27.46.12,1.85.84.92.05.02-.06.1-.06.23,0,.07-.11.1-.11.19-.04.05.04-.07.06.04-.07.04-.08.12-.1.24-.05.09-.25.33-.17.46,0,.15-.06.32-.09.51-.07.12-.53.91-.67.77.02l.1.42c.04.23.08.19.12-.11-.07-.38.07-.55.34-.81-.07-.14.03-.21.29-.21.56-.25,1.46-.24,2.07-.27l-.03.04Z"/>
          <g>
            <path class="st69" d="M249.93,25.97c.2,1.04.13,2.12,0,3.16,0-1.05.02-2.01-.11-3.05-.03-.21-.09-.42-.06-.64.12.12.14.38.17.53Z"/>
            <path class="st121" d="M247.04,29.98c-.23.07-.46.11-.69.16-.29.06-.58.07-.86.16-.07-.02-.2.01-.29,0,.44-.36,1.28-.44,1.84-.32Z"/>
            <path class="st35" d="M248.89,29.87l-.03.21c-.09-.19-.14-.22-.32-.32-.35-.2-.72-.4-1.15-.38-.02-.19.73-.02.86.03.32.11.4.28.64.45h0Z"/>
            <path class="st47" d="M247.74,29.87c-.14-.02-.27-.03-.4-.05-.36-.05-.74-.07-1.09-.16.38-.06,1.27-.13,1.5.21h-.01Z"/>
            <path class="st96" d="M244.91,30.78c.14-.02.27-.04.4-.05-.16.21-.53.17-.81.27-.08.03-.39.33-.46.27-.24-.22.77-.47.86-.48h.01Z"/>
            <path class="st24" d="M249.52,29.02c-.18-.73-.49-1.4-.92-2.03.54.53.86,1.32.92,2.03Z"/>
          </g>
        </g>
        <path class="st138" d="M251.08,34.85c.1.07.08.13.02.22.04.28,0,.49-.13.64-.04.13-.08.25-.12.37l.09.09c-.04.16-.55,1.23-.62,1.26-.05.03-.1.05-.17.04-.07.08-.21.19-.29.27-.58.09-.77.48-1.18.8.29-.9-.24-.27-.78-.32l.17-.11.1-.13c.92-.2,1.7-.85,1.95-1.71l.14-.09c.11-.51.15-.91.12-1.45l.11.7c0-.38.08-.73.52-.86,0,.09.04.18.06.27h0Z"/>
        <path class="st138" d="M248.31,39.08c.28-.26.44-.56.95-.43.03,0,.19.37.38.27,0,0-.06.15-.06.16-.08-.08-.29.28-.29.29s.45.04.11.16-.02-.34-.58-.05c-.05.03-.03.16-.09.19-.07.03-.69.12-.83.1.03-.02.04-.04.06-.05-.04-.11.04-.14.12-.05.17-.14.48-.27.23-.59Z"/>
        <g>
          <path class="st49" d="M244.68,36.94c.08.07.17.11.26.14.74.78,1.9,1.12,2.99.95l.14.09.04.04c.23-.07.45-.13.68-.16.02.24.16.21.42-.09.24-.21.46-.27.64-.16.11.17-.24.42-.42.48.03.22.06.31.31.32.1.05.1.14,0,.27.08.13.03.17-.12.11-.09.15-.21.12-.32,0-.21-.42-.66-.07-.88.2l-.12-.03c.06.29-.14.45-.59.48-.32.23-.68.16-.92-.15-.06-.1-.48-.04-.49,0,.37.36.4.59.08.7,0,.19-.48.21-.49,0l-1.84-.7c.07-.11.21-.17.42-.19-.39.07-.78.09-1.17.08-1.13-.13-2.26-.43-3.4-.54.06-.08.17-.14.32-.17.72-.58,1.71-1.01,2.57-.4.3.13.64.15.97.13-.33-.18-.64-.4-.92-.65-.35-.04-.46-.13-.31-.46,0-.35-1.45-.44-1.52-.21.46-.06.62.02.47.25-.88.15-1.66.62-2.22,1.26l-.17.03c-.3-1.06.48-2.29,1.38-2.89,0-.14.11-.24.34-.29l.54-.12c.64-.54,1.25-.55,2.07-.54l.1.1h.35c.19-.16.3-.17.32-.05-.05.7.08,1.41.48,2.01v.18-.02Z"/>
          <path class="st175" d="M239.09,38.55c.54-.69,1.49-1.28,2.42-1.39-.1-.12-.72.02-.75,0-.02,0,.23-.3.25-.31.25-.12.83-.07,1.11,0,.92.2.35.52.5.69,0,0,.22,0,.31.06.3.22.63.56,1,.68.02,0,.63-.07.36.09-.13.08-.81.09-1,.07-1.14-.15-.84-.83-2.43-.14-.37.16-.56.54-.96.47-.22-.02-.47-.04-.69-.05l.52-.05c-.27-.08-.57.11-.63-.11h0Z"/>
          <path class="st67" d="M243.3,39.3c.53-.04,1.19-.37,1.67-.05-.3,0-.63.15-.92.16-.26,0-.5-.08-.75-.11Z"/>
          <path class="st53" d="M244.57,38.49c-.08.17-1.27.58-1.32.53-.15-.12,1.13-.65,1.32-.53Z"/>
        </g>
        <path class="st90" d="M268.77,32.6s-.06.03-.06.05c-.05,0-.08-.03-.12-.05-.17-.17-.32-.35-.46-.54.28.08.44.37.63.54h0Z"/>
        <path class="st29" d="M268.14,32.07c.16.18.38.32.46.54-.36-.23-.38-.41-.58-.64.06.02.08.07.12.11h0Z"/>
        <g>
          <path class="st162" d="M266.64,29.29c.4-.08.87-.13,1.27,0,.59.07,3.86,1.61,3.8,1.95,0,.05-.77.36-.95.57-.31.36-.4,1.07-.64,1.5-.21.4-.52.69-.84,1.01-.16.19-.16-.15-.14-.3-.14-.31-.32-.6-.54-.87l.04-.11c.39-.07.08-.06.06-.37-.08-.1-.05-.13.06-.05.05-.12.17.1.17.09-.35-.58-1.09-1.26-1.66-1.67v-.08c.22-.37-.36-.17-.52-.43l.13-.08c.32.07.63.16.93.29l.03-.11c0-.2.17-.22.5-.04l.2.04c0-.12.32.1.3.09-.85-.49-1.72-.99-2.74-1.1l-.09-.11h-.4l-.35-.11.16-.12c.38-.05.87-.07,1.22,0h0Z"/>
          <g>
            <path class="st52" d="M269.17,34.48c-.09-.24-.13-.46-.25-.71-.08-.18-.68-.92-.67-.98.03-.25.33.15.4.24.13.15.57.8.61.96.05.19-.24.33.02.32-.02.02-.01.14-.12.16h.01Z"/>
            <path class="st75" d="M267.39,29.13c.17.03.4.04.52.16-.23-.03-.99,0-1.27,0,0-.06.07-.1.23-.11.16,0,.37,0,.52-.05Z"/>
            <path class="st159" d="M266.18,30.25c.48,0,1.25.17,1.67.37.17.08,2.2,1.66,1.87,1.71-.11.02-1.36-1.18-1.69-1.37-.48-.27-.76-.31-1.28-.45-.2-.05-.7-.13-.69-.27h.12Z"/>
            <path class="st114" d="M266.87,29.18l-.23.11c-.44,0-.94.08-1.38.11-.27.02-.53.06-.81.05.06-.05.42-.2.46-.21.57-.12,1.36-.04,1.96-.05h0Z"/>
            <path class="st167" d="M267.27,30.95c.57.17,1.43,1.25,1.73,1.74,0,.19-.22-.07-.23-.08h-.06c-.17-.2-.36-.38-.58-.54l-.12-.11c-.11-.13-1-1.06-.89-1.07.07-.01.1.04.14.05h0Z"/>
            <path class="st28" d="M266,29.5c.86.04,2.28.68,2.91,1.23,0,.1-.34-.09-.37-.11-.37-.19-.7-.41-1.11-.55s-1.98-.35-2.06-.41c-.15-.11.6-.16.63-.16h0Z"/>
            <path class="st168" d="M270.04,31.43c-.09.08-.68-.65-.63-.7.09-.08.7.63.63.7Z"/>
          </g>
        </g>
        <g>
          <path class="st32" d="M246.35,25.81c-.16.15.2.14.35.21l-.11.05c-.2.06-.24.12-.12.16l-.29.11.35.11c-.22-.05-.36-.02-.58,0-.06.02-.06.04,0,.05.11,0,.2-.04.17.11-.15.06-.85.08-.86.24,0,.1.39-.17.35.08l.02.07c-.33.21-.73.42-1.09.61,0,0,.16-.1.21.02.07.03.19.05.23.11v.06c-.21.03-.27.07-.17.1.03.1-.09.12-.12.16l-1.21.62s.22-.15.23-.03c.02.01.05.05.06.05-.18.03-.81.68-.92.64-.27-.1-.28-1.77-.39-2.07-.14-.38-1.1-1.13-1.05-1.19.02-.03.6-.27.69-.3,1.2-.36,3.06-.29,4.26.03h-.01Z"/>
          <g>
            <path class="st157" d="M245.6,26.93c.26-.1,1.08-.4,1.27-.27h-.29c-.02.11.16.03.17.05.06.09-1.83.83-2.02.91-.12.05-.61.33-.69.27-.17-.14,1.4-.9,1.56-.96Z"/>
            <path class="st78" d="M246.58,26.07c.09.02.31.09.29.21-.13-.04-.26-.04-.4-.05-.83-.05-1.16-.05-1.96.19-.12.03-.75.39-.69.21.2-.56,2.25-.7,2.77-.56h0Z"/>
            <path class="st84" d="M245.95,26.45v.05c-.6.01-1.3.51-1.84.7.51-.55,1.12-.67,1.84-.75Z"/>
            <path class="st149" d="M244.68,28.05c-.17.28-.6.45-.98.59-.97.37.62-.63.98-.59Z"/>
            <path class="st148" d="M244.97,27.73c.11.14,0,.1-.17.16-.07.02-.42.11-.46,0l.63-.16Z"/>
            <path class="st125" d="M244.97,25.75c-.65-.13-1.22.27-1.84.37.48-.27,1.32-.67,1.84-.37Z"/>
          </g>
        </g>
        <path class="st170" d="M258.8,25.43c.18.34,1.08.08,1.27.48-.88.85-1.27,1.72-2.02,2.68-.16.33-.49.75-.77,1.06-.12.13-.23.26-.37.37,0,0-.03,0-.07-.03-.02.02-.08.03-.12.05-.12.07-.51.22-.52.08-.03-.37.68-.83.69-.88.04-.17-.14-.03-.11-.21,0,0,.11.01.11-.02,0-.22.09-.64-.19-.51-.07.03-.58,1.08-.67,1.26-.24.1-.03-.16-.06-.19-.19-.19-.17.3-.23.4-.06.09-.36.17-.44.25-.03.03-.22.78-.53.2-.09-.13-.05-.2.12-.16.2-.11.23-.16.23-.37-.09-.14-.05-.21.12-.16.15-.18.27-.39.35-.64.04-.1.08-.15.12-.21l.13.05c.09,0,.42-.7.44-.85.23-.29.51-.51.69-.75-.06-.06-.03-.09.06-.05.57-.19.7-.96,1.06-1.34.2-.21.54-.31.72-.48v-.03Z"/>
        <path class="st37" d="M257.99,30.57c-.48.04-.26,0-.35-.21-.13.06-.15.02-.12-.11.39-.35.84-.66,1.21-1.02.3.64-.33,1.01-.75,1.34h.01Z"/>
        <path class="st40" d="M258.05,28.59c.18-.01.11.03.04.11-.32.38-.71,1.01-1.07,1.31-.11.09-.1.11-.17-.03.34-.23.94-1.04,1.21-1.39h0Z"/>
        <path class="st142" d="M254.36,24.9c.02.11.46.19.46.21,0,.03-.4.49.05.31.09-.04.14-.61.3-.2-.34.2-.16.49-.23.71-.06.18-.66,1.21-.57,1.32,0,.02.15-.08.17-.05.09.13-.87,2.06-.81,2.41l.08.14c-.08.41-.12.82-.13,1.24l-.12.11s-.02.09-.16-.02c-.03-.02,0-.14,0-.14-.03-.02-.32.17-.27-.13,0-.02.25-.29,0-.36-.16-.05,0,.22-.2.16.08-.3.09-.31-.06-.59l-.12.43-.06-.21-.17.16c.07-.29.26-.62-.06-.86.14-1.54.5-3.6,1.9-4.66v.02Z"/>
        <path class="st70" d="M253.73,29.61c.08-.27.43-.79.54-1.07.08-.21.51-1.61.59-1.66.41-.29.1.48.1.55.09.87.88-.8.99-.82.03,0,.58.09.6.11.06.05-.2.43-.17.53,0,.02.31.06.23.21-.06.12-.69.66-.83.86-.18.26-.43.75-.44,1.06.13.07,0,.27-.12.32,0,0-.05.06-.12.16.04.17-.05.32-.23.37-.02.04-.08.1-.12.16-.22.4-.41.81-.58,1.23l.06-1.07-.6,1.34c-.12-.34.14-.5-.09-.8.05-.54,0-.95.17-1.5l.02.02Z"/>
        <path class="st70" d="M256.96,27.31c-.37.01.03-.07.05-.25.08-.66-.16-.46.37-1.04.07-.08-.03-.34.37-.35.77-.03-.05.28-.07.31-.04.04.05.14,0,.21-.07.11-.24.15-.26.17-.07.12-.21.63-.41.9-.02.02-.04.03-.06.05h.01Z"/>
        <path class="st38" d="M256.26,28.05c.18.16-.45,1.4-.58.8.2-.41.33-.49.58-.8Z"/>
        <path class="st38" d="M255.57,29.07c-.09.21.02.65-.35.64.03-.06.06-.23.12-.32.06-.12.13-.23.23-.32h0Z"/>
        <path class="st136" d="M266.23,43.36c.1.12.8.52.23.64-.22-.13-.46-.26-.69-.37.09-.12.2.06.35.05.02,0,.02-.28.12-.32h-.01Z"/>
        <path class="st83" d="M265.83,46.68c0,.19-.15.34-.42.45-.19.12-.6.34-.79.24-.07-.02-.12,0-.17.05.06.15-.1.21-.23.11-.31-.16-.37-.3-.17-.42-.01-.53-.13-1.08-.44-1.52l.04-.15c-.12-.18-.42-.31-.4-.59,1.02.59,1.71,1.05,2.59,1.82h0Z"/>
        <path class="st169" d="M262.72,43.52s.03-.04.05-.06c.07-.05,1.24.58,1.39.7.07.06.61.61.63.64.36.55-.04.33-.18.35-.36.05-.13.16-.62-.03-.38-.26-1.06-.49-1.38-.8-.03-.03-.44-.67-.4-.7.02-.02.14.08.17.05.06-.04-.29-.17.35-.16h-.01Z"/>
        <path class="st161" d="M266.18,46.95c-.87.63-1.86,1.05-2.94,1.28-.07-.1-.16-.22-.23-.32.1-.12.26-.2.47-.23.27-.14.51-.19.74-.15.11-.04.16-.08.23-.11,0-.16.07-.18.17-.05.46-.2.82-.31,1.21-.7.11.09.24.17.35.27h0Z"/>
        <path class="st116" d="M243.13,40.37c.18.18-.65.2-.86.27-.53.13-1.09.2-1.64.22s0-.03-.26-.16c.04-.04.05-.06.12-.11h.13c.25-.17.63-.26.94-.27.3-.05.77-.11,1.04,0,.13-.05.32-.03.55.05h-.02Z"/>
        <path class="st122" d="M243.13,40.37c-.17.06-.43-.05-.55-.05h-1.04c-.12,0-.62.14-.76.2-.06.02-.28.37-.3.07.44-.3,2.3-.56,2.65-.21h0Z"/>
        <path class="st103" d="M245.72,41.76c-.96-.14.68-.19.94-.33l-.02.16c-.06.09-.18.13-.29.11h-.29c-.16.1-.28.12-.35.05h0Z"/>
        <path class="st165" d="M246.87,40.47h-.06c-.35.07-.69.13-1.04.21l-.12-.11c.08-.15.51-.23.71-.24.09,0,.46,0,.5.05,0,.02,0,.05,0,.08h0Z"/>
        <path class="st109" d="M246.64,41.6c.05,0,.22.06.17.16-.22-.07-.68.26-.46-.05.08-.12.14-.13.29-.11h0Z"/>
        <path class="st34" d="M246.07,41.7l-.43.32c-.05,0-.02-.11-.03-.11.02-.03.04-.09.06-.11s.05-.05.06-.05c.07-.02.26-.05.35-.05h-.01Z"/>
        <path class="st88" d="M245.09,40.69c.67-.31,1.18-.55,1.96-.32.03.17-.07.09-.17.11-.38-.19-.82,0-1.21.11-.17.04-.42.16-.58.11h0Z"/>
        <path class="st49" d="M248.08,39.67s-.08.03-.12.05l-.23-.11c.12,0,.47-.24.35.05h0Z"/>
        <g>
          <path class="st15" d="M253.04,47.81l-.11-.21.63.11c-.4-1.14.31-.47.46-.54.28-.12-.57-.52-.58-.57-.12-.45.46-.48.55-.61.06-.09-.06-.44.12-.48.31-.07,0,.26-.03.32.55-.16.26.05.35.34.02.08.17.31.17.33,0,.07-.31-.05-.35-.03-.02.02-.11.52.17.32.02,0-.08-.14-.06-.16.03-.02.67-.19.69-.16.04.04.07,1.03.12,1.07.09.07.3-.13.29-.19,0-.05-.2-.07-.23-.21s.12-.39.11-.54-.3-.44-.16-.53c.27-.18.65.23.38.24-.03,0-.48-.25-.03.14.11.09.23.06.28.09.05.04.17.52.42.31.29-.24-.27-.15-.29-.16-.04-.04.07-.22.06-.23-.04-.07-.18-.06-.22-.23-.05-.25.05-.68.16-.93-.05.27.16.6.23.77,0,0-.08.17-.05.19s.54.07.52.37c0,.03-.32.45-.34.46-.16.1-.36-.26-.29.29-.12-.27-.27.17-.23.21.04.05.96-.47,1.15-.27-.05-.1-.54-.57-.2-.54.1,0,.28.14.31.11.09-.1-.25-.38-.28-.47-.05-.14.07-.26.01-.43-.06-.15-.75-.63-.86-.82-.29.39-.07-.37-.02-.5.03-.06.34-.1.28-.48,0-.05-.27-.11-.18-.2.06-.06.25.18.38.21.08.02.45-.3.2.35-.7-.78-.19.32.12.43.56.19,0-.19,0-.21,0-.03.55-.38.35.13l.17-.11v.21l.17-.21c.12.14.23.29.35.43-.04.13.03.21.17.16.47.59.84,1.11,1.21,1.77-2,.6-3.96.7-6.05.64l-.02.02Z"/>
          <path class="st103" d="M257.71,45.24s.11.08.17.16c-.08.77-.81.15-.17.11-.1-.16-.5-.14,0-.27Z"/>
          <path class="st103" d="M257.88,46.36s-.24-.26-.23-.27c.08-.06.25.16.35-.05.02.06-.1.31-.12.32Z"/>
        </g>
        <g>
          <path class="st177" d="M256.44,38.39c-.15.07-.29-.06-.43-.37-.18-.02-.31-.08-.38-.18-.25.06-.35-.12-.2-.3-.38.04-.28-.38-.14-.57.31,0,.41-.23.29-.7,0-.09.06-.42.09-.45s.08-.03.13-.02c.06-.58.13-1.15.23-1.72-.26-.16-.24-.38-.13-.62.27-.4.28-.81.22-1.26.43-.38.77-.81,1.03-1.3.21-.35.57-.46.77-.07.13-.14.38-.14.37.08.17.04.05.3-.12.27l.02.17c-.12.07-.28.4-.16.5-.05.13-.08.25-.08.38l.88-.99s.17-.07.2-.07c.15.28.13-.08.17-.11.08-.05.02.14.14.1.08-.02.21-.22.26-.16.17.23-.64.3-.4.4.03.01.69-.06.75-.08.12-.16.49-.47.69-.37-.34.53.57-.24.86.05l-.04.07-.69.18.09.07c.12.15.31.1.06.27h.4c.08,0,.14.02.17.05.25.12.48.15.75.11l-.06.11c.3-.12.19.1.46.11.02.1-.15.03-.17.05.02.1.08.18.17.23v.14c-.03.08-.13.16-.3.22.28-.03.59,0,.62.3-.21.12.06.72.26.71.43-.25.45.35.07.45-.28-.08-.44-.04-.63.18.49.21.33.6-.15.66l-.11.1-.19-.08c-2.15-2.93-6.07-.36-6.04,2.51.09.22.11.41.06.56.22.14.28.26.17.37l.04.02Z"/>
          <path class="st74" d="M259.03,31.11v.05c-.15.07-1.1,1.33-1.18,1.29-.17-.08.23-1.12.32-1.29l.11.21-.11-.05c-.55,1.06.4.13.63-.22l.09.11c.06-.18.14-.1.14-.11h0Z"/>
          <path class="st6" d="M261.51,31c.41-.02.79,0,1.09.27-.71-.29-1.08-.12-1.73.05-.15.04-.3.07-.46.05.26-.25.72-.35,1.09-.37h.01Z"/>
          <path class="st62" d="M262.31,34.1c.08.15-.17.2-.17.22,0,0,.29.33-.03.16-.26-.14.16-.46.2-.37h0Z"/>
        </g>
        <path class="st177" d="M263.24,33.03c.11.05.37.43.58.48-.2-.09-1.01-.22-.58-.43l-.23-.05c.06,0,.19-.02.23,0Z"/>
        <path class="st98" d="M252.63,35.76c.22-.86.86-.46.7.03-.02.06-.17.02-.18.03-.18.6.33.2.54-.07.04-.06.14-.72.44-.5.19.14-.05.35-.06.4,0,.02.13-.07.11.11,0,0-.11,0-.11.04,0,.09-.06.53-.05.57.05.23.18-.3.45.06.11.14-.15.09-.06.3.56.1.86.29.47.82.05.14.15.34.28.57.11.15.26.52.4.37.16-.03.32.23.31.36-.02.21-.2.41-.37.23,0,0-.22-.09-.29-.16l-.2-.09c-.28-.54-.82-.52-.17.02.09.11,0,.17-.22.18-.23-.23-.59.02-.71.24l-.14.02c-.1-.03-.36-.08-.46-.05-.05-.05-.33-.23-.4-.27-.42-.66,1.09.18,1.3-.38.09-.25-.14-.36-.14-.4,0-.05.16-.04.16-.1-.02-.3-.15-.61-.16-.96,0-.05.13-.02.12-.06-.08-.23-.3.13-.46-.03-.13-.13.14-.46.12-.48s-.58.19-.63.16c-.03-.02-.03-.25-.07-.31-.03-.04-.2.02-.25-.23-.05-.22.32-.59-.25-.43h-.02Z"/>
        <path class="st98" d="M251.48,35.01s.39-.03.06.43c.39-.04.47-.72.74-.12.09.21-.12.98.36.5-.02.09.14.38-.2.53l-.06-.21c-.12.2-.55.23-.66.11l-.12.27c.06-.16-.06-.58-.06-.62.02-.1.24-.23.17-.29-.04-.04-.17.23-.29.11,0-.04.09-.67.06-.7h0Z"/>
        <path class="st98" d="M251.48,35.01s-.28.04-.29.05c-.03.03.09.74-.23.64.09-.31-.05-.59.12-.86.25-.41.32.04.4.16h0Z"/>
        <path class="st150" d="M250.68,29.71c.03.15-.03.35,0,.5.02.11.29,0,.06.31.06.02.22-.06.23-.05.1.08.06.72-.14.64-.18-.07-.2-.63-.2-.8s-.05-.43.06-.59h0Z"/>
        <g>
          <path class="st8" d="M252.92,38.97c.11-.15.5.12.4.27.32.05.42.34.29.59.05,0,.05.03,0,.05-.36.57-1.86.53-2.27.86-.31.24-.51,1.84-.29,2.2.25.39,2.17,1.37,2.19,1.5,0,.06-.02.1-.06.11-.44.1-1.76-1.28-2.45-1.32-.36-.02-2.11.73-2.25.51-.15-.24,2.05-.41,2.29-1.06.06-.15.33-1.97.29-2.07-.13-.31-1.64-.79-1.49-1.53-.16-.06-.11-.15.06-.16,0,0,.1-.1.12-.11.64-.5,2.49-.15,3.17.16h0Z"/>
          <path class="st17" d="M253.26,39.82c-.13.18-.6-.15-.92-.08-.57.12-.2.97-1.16.66-.59-.19-.24-.48-.42-.73-.23-.31-.89-.06-.82-.55.12-.89,3.82,0,3.32.7Z"/>
        </g>
        <path class="st139" d="M263.64,45.45c.41.62.48.97.52,1.69,0,.1-.19.06-.12.18,0,.02.31.05.17.22-.4.14-.78.3-1.21.37-.35-.46-.8-.92-1.21-1.34.22-.27.73-.3,1.04-.43.11-.05.79-.34.81-.38.01-.05-.97-.57,0-.32h0Z"/>
        <g>
          <path class="st178" d="M257.65,30.36c.12-.02.14.02.14.12.11-.02.17-.02.2.09.23-.02.56-.3.52.11-.03.03-.22.2-.23.21-.3-.18-.24.03-.4.16-.31-1.06-.75.15-1.05.58-.08.11-.57.48-.61.59-.05.12.06.56.03.73-.04.19-.66,1.05-.04,1-.29.46-.14,1.61-.35,1.98-.02.03-.39-.24.06.27-.41-.21-.11.37-.21.63-.12.33-.4.21-.43.23-.02,0,.07.11.06.13-.19.33-.02.25.34.19-.5.6-.02.29.06.32,0,0-.02.13,0,.15.09.05.25.03.33.1.17.15.16.4.35.45.06,0,.13.02.17.06.09.08.46.49.54.58.04.05.04.11.04.16.01.04.01.1-.02.12-.05.03-.49-.06-.6-.14l-.18.02c.32.12.46.37.41.77.46-.09.52.18.35.51.11-.03.19,0,.23.1.25,0,.6.13.35.37.14.08.25.19.32.31.16-.03.25.04.34.14l.44-.03c.17,0,.34.04.2.19,0,.03-.01.05-.02.05-.49.02-1.1.02-1.59,0-.01,0-.03-.02-.04-.05l.03.11c.8.03,1.6.07,2.4.14l.02.07.51.14v.07c.61-.04,1,.51.18.39-.08.15-.2.18-.33.07.02.08.02.15,0,.21.29.18.59.33.91.45l.09-.07.79.34c.22-.15.69-.24.73.06l-.07.11c-.31,0-.31.19,0,.58l-.05.12c-1.41-.6-3.2-1.48-4.73-1.77.01-.1.05-.19.12-.27-.08-.03-.1-.08-.08-.15-.05-.04-1.03-.23-1.17-.25-.02,0-.02.03-.02.08.06.07.03.09-.12.05-.11.13-.31.09-.58-.11-.19-.05-.14-.22-.02-.34-.43-.06-.26-.38.02-.53-.14-.18-.11-.31.06-.47-.05-.16-.13-.2-.23-.11-.09.14-.79-.31-.84-.38-.1-.14-.08-.27-.03-.43-.38-.14-.91-.07-1.24.16h-.14c-.1-.17.05-.24-.29-.59.02-.19.47-.13.46.05.07-.02.12,0,.15.04.22-.46.41-.43.88-.34.09-.28.23-.27.41-.08.11-.1.33,0,.29.16h.13c.04.06.51.81.57.76.03-.03.04-.16,0-.19-.19-.08-.27-.19-.22-.32-.32.04-.26-.22-.13-.4.05-.15-.09-.7-.17-.44h-.13c0,.39-.59-.16-.4-.36-.1-.19-.2-.38-.31-.57.2-.19.2-.33.17-.58l.08-.03c-.02-.37-.08-.19-.11-.3-.06-.26.15-.41.2-.66.11-.59.34-.91.43-1.27,0-.04,0-.7,0-.74-.09-.2-.67.13-.69.21,0,.03.19.49.15.56-.25-.03-.43-.46-.38-.69-.28,0-.29.45-.46.51-.27.1-.48-1.06-.14-1.05.25,0-.15.67.14.8-.04-.44.26-.7.42-1.09.09-.23.26-1.41.51-.89.19-.48.1.14.12.16.07.06.31-.12.37-.11.03,0,.11.24.3.22.28-.03.03-.51-.03-.43-.05.07.05.6-.23.11-.06-.37.44-.95.81-1.12.13-.12.43-.39.58-.48.18-.16.37-.27.58-.32h0Z"/>
          <g>
            <path class="st107" d="M256.5,31.16c-.29.26-.73.75-.81,1.12,0-.02-.1.07-.11-.07,0-.17.28-.58.4-.73.02-.03.44-.47.52-.32Z"/>
            <path class="st38" d="M257.65,30.36c-.08.17-.54.3-.58.32.11-.18.31-.29.46-.43.05.02.09.06.12.11Z"/>
            <path class="st180" d="M254.42,36.73c.18,0,.68,0,.69.21,0,.31-.18.62-.18.67,0,.03.32.32.23.51-.12-.16-.46-.52-.38-.65.05-.07.36.02.17-.42-.13-.32-.43-.06-.54-.32h0Z"/>
            <path class="st180" d="M255.57,38.49s.17-.32.2-.32c.15-.02.05.39.26.41l-.18.66c.47-.12.19.16.23.21.02.03.4.07.22.45-.16.33-.7-.71-.8-.83.61-.15.07-.41.06-.59h0Z"/>
            <path class="st180" d="M253.79,39.3c.24-.5.54-.42,1.04-.32-.12-.14-.75-.62-.13-.64.19,0,.5.55.54.58-.5-.18-.14.24-.17.27-.09.09-.16-.16-.21-.16-.11-.02-.21.11-.23.11-.06,0-.04-.19-.23-.17-.14.02-.35.46-.41.49-.16.05-.19-.16-.2-.16h0Z"/>
            <path class="st38" d="M256.03,33.09c-.32.08-.33-.45-.14-.43.09,0,.11.35.14.43Z"/>
          </g>
        </g>
        <path class="st38" d="M254.88,30.25c.07-.13.16-.25.23-.37.16.25.04.39-.23.37Z"/>
        <g>
          <path class="st180" d="M265.43,38.44s.05.05.06.05l.46.32c.7.45,1.68,1.35,2.13,2.03l-.92,2.03c-.33-.43-.53-.75-.92-1.18l-.18-.03c-.62-.68-1.55-1.43-2.57-1.23-.48.17-.97.31-1.47.41.38.44-.45.4-.75.3-.01.06-.06.09-.12.1-.19-.06-.82-.1-.97-.03-.09.04,1.34.43,1.43.24.68-.26,1.32-.2,2.04-.12-.03-.37.63-.08.86.06.4.23.92.81,1.2,1.18l-.03.14c.24.26.34.34.58.64.13.44-.09.4-.46.27h-.17c-2.5-1.35-5.3-1.98-8.18-1.98-.04,0-.12,0-.17,0-.02-.05.13-.11.14-.11h1.64c.01-.16-.51-.03-.71-.05-.06,0-.08-.23-.33-.11l.11.11c-.41.07-.11-.14-.19-.25-.05-.07-.45-.34-.45-.36,0-.08.29.06.23-.13-.27-.03-.24-.14-.46,0,.09-.41-.11-.04-.17-.11-.17-.17.14-.41.03-.54s-.31.06-.41-.05c-.02-.02-.03-.49-.06-.53-.14-.26-.36-.17-.37-.3-.02-.21.49-.22.55.03.13-.39.12.05.37-.05h.18c1.16.72,2.72.87,4.01.39l.18.04.03-.14c.66-.39,1.17-1.03,1.4-1.73l.13-.06c.75.24,1.6.41,2.31.75h0Z"/>
          <g>
            <path class="st144" d="M265.95,38.81c-.12-.08-.43-.31-.46-.32l.46.32Z"/>
            <path class="st48" d="M266.23,41.7c.04.3.76.94.73,1.23-.06.5-.51.28-.77.09-.03-.02-.24-.53-.54-.3-.53-.58-1.1-1.47-2.02-1.45l.4.16c-.49.08-1.14-.09-1.58-.06-.54.04-.73.27-1.39.22-.31-.02-1.07-.23-1.24-.48.46.05.87-.14,1.35.05l-.09-.16c.33.07.58.16.92.05.02-.19-.21-.06-.38-.16-.34-.2.38-.13.56-.18,1.02-.25,1.43-.7,2.5-.21.68.31,1.05.69,1.52,1.19h.03Z"/>
            <path class="st118" d="M265.77,43.63c.36.02.59.15.69.37.38.22.75.45,1.09.72-.34-.12-.67-.33-.98-.51-.14-.08-.27-.14-.4-.21l-.28-.03c-1.51-.83-3.12-1.47-4.84-1.8l-.23-.15c-.34,0-.66-.04-.98-.16-.59-.08-2.07-.1-2.42-.21,2.93-.18,5.83.66,8.36,1.98h0Z"/>
            <path class="st77" d="M256.67,38.28l.16.06c.9,1.32,2.99,1.61,4.45,1.02l.17.04c.19.16-.28.08.12.21-1.26.59-3.26.37-4.38-.43-.31-.22-.55-.49-.75-.8-.04-.06-.14-.29-.17-.37l.17.11.06-.27c.08.11.14.26.17.43h0Z"/>
            <path class="st178" d="M257.82,40.53c.04.27-.59-.1-.46-.21.07-.06.44.08.46.21Z"/>
          </g>
        </g>
        <g>
          <path class="st63" d="M266.18,44.01l-1.33.8h-.06s-.1.05-.12.03c-.12-.09-.45-.43-.54-.55l.03-.12c-.92-.59-1.94-1-3.07-1.11.05.04.03.09.01.15-.45,0-.7-.21-1.02-.37-.02,0-.42.14-.14-.16,0,0,.15.08.17.05.01,0-.14-.22.06-.3.08-.03.11.1.2.08.08,0-.06-.14-.03-.16.05-.03,1.22.23,0-.27l.02-.07.44.02c2.13.4,3.51.97,5.36,1.98h.02Z"/>
          <path class="st184" d="M264.16,44.17l-1.44-.64c-.37-.26-.57.05-.72.05-.05,0-.84-.34-.9-.37-.09-.06-.24-.15-.23-.27,1.11.05,2.47.5,3.28,1.23h.01Z"/>
          <path class="st71" d="M260.82,42.03l-.46.05c-.17-.07-.36-.12-.52-.21.33.04.65.1.98.16h0Z"/>
          <path class="st178" d="M261.34,42.19l-.17.53c-.15-.17-.1-.47.17-.53Z"/>
          <path class="st178" d="M261.85,42.29c-.06.04-.23.38-.35.27s.23-.32.35-.27Z"/>
        </g>
        <g>
          <path class="st105" d="M253.61,39.83c.15-.36,1.37-.46,1.48-.2.03.07-.09.26,0,.39.03.03.65.38.76.45.11-.11.24-.04.23.11.24.16-.02.09-.04.24,0,.07.11.19.09.26s-.32.21-.28.33.47,0,.46.11c0,.07-.39.09-.29.4l.34.17c.11.03.27.08.23-.06l.12-.05c.11-.08,1.18.15,1.22.19.03.04.05.08.05.13,0,0,.09-.03.12.03.02.05-.29.06.12.24h-.35c-.09-.02-.46-.08-.52,0,.31.08.62.18.92.27-.1.07.38.28.45.18.18.04,1.28.34,1.33.45l-.07.14,1.36.62.32.41c.14-.06.21.02.28.15.19.03.33.15.39.32.23,0,.36.1.39.31,0,.26.05.5.11.74l-.02.12-.65.19c-.14.1-.26.14-.37.12-1.13-1.15-2.52-2.32-4.06-2.95,1.46.84,2.74,1.76,3.89,2.95.07.19-.37.27-.46.11-.08-.05-.1-.13-.06-.24-.15.1-.3.12-.43.06-.04.53-.51.34-.86.16l-.6.29-.12-.06c-.61-1.02-1.39-1.94-2.25-2.78.19-.09.26.21.29.21.11.02.43-.53.39.1,0,.02-.16.05-.16.09.02.58.26-.12.29-.13.01,0,.16.1.28.03.95-.57-.7-.38-.77-.41-.16-.08,0-.23-.03-.26-.05-.04-.25.07-.31.05-.02,0-.26-.18-.33-.22.2-.21-.28-.42-.46-.32-.45.3-.16-.09-.17-.11s-.38-.24-.41-.24c-.18-.06-.42.16-.46,0s.57-.53.75-.64c.07-.04.21.04.23.03.35-.22-.66-.83-.75-.94-.11-.13-.42-.87-.46-.83-.05.05.18.36-.08.26-.13-.05-.17-.33-.21-.37-.03-.02-.19.08-.23.05-.09-.06.03-.35-.06-.4-.03-.02-.47.02-.58-.19v-.05h0Z"/>
          <g>
            <path class="st118" d="M261.8,46.58l.22.07c.2.18.97.97.99,1.15v.12c.19,0,.33.16.23.32.43.62.7,1.37,1.09,1.93l.12.45c-.08.08-.1-.15-.12-.19-.4-.83-.67-1.33-1.21-2.09-.17.02-.33-.24-.25-.35l-.21-.24-.16-.05c-.25-.35-.54-.67-.87-.96v-.16c-.19-.06-.35-.13-.4-.31-1.07-.89-2.17-1.79-3.42-2.47-.22-.16-.07-.2.2-.17.31.04,1.31.71,1.63.93.43.3,2.01,1.52,2.13,1.88.01.04.02.09.03.13h0Z"/>
            <path class="st86" d="M259.09,46.9l.72-.35c.96.48.64,0,.78-.18.04-.05.18.09.2.09.33-.08.57-.36.37.23-.28.08-1.29.53-1.48.53-.42,0,.09-.14.09-.16.09-.16-.54-.03-.52.16-.06-.11-.11-.22-.17-.32h.01Z"/>
            <path class="st108" d="M256.03,43.26c.06-.04-.01-.15.15-.16.05,0,.91.39.32.48-.15-.08-.35-.19-.46-.32h-.01Z"/>
            <path class="st166" d="M256.73,41.97c-.12-.05-.57-.33-.23-.32,0,0-.02.11.11.14.18.03,1.4.24,1.45.29.03.04-.06.19-.06.21-.35-.11-.95-.19-1.27-.32Z"/>
            <path class="st103" d="M256.61,42.03l.63.32c-.15,0-.89-.19-.92-.16-.04.05.1.33-.13.37-.4.07.08-.42.08-.45-.02-.05-.2-.09-.23-.19l.58.11h0Z"/>
            <path class="st180" d="M256.09,40.58s-.1-.02-.23-.11c.08-.35.36-.17.23.11Z"/>
            <path class="st110" d="M257.36,43.63c-.14-.04-.51-.15-.52-.32.2,0,.4.19.52.32Z"/>
          </g>
        </g>
        <g>
          <path class="st55" d="M258.28,42.83c1.91.57,3.24,1.05,4.96,2.03.13.16.27.31.44.45l-.03.14c-.04.06-.08.09-.14.08.55.3-.22.59-.57.69l-.11-.07c-.37-.19-.09-.69-.32-.91-.09-.09-.21.02-.26-.02-.04-.04-.02-.16-.16-.27-.11-.09-.24-.06-.28-.09-.03-.02,0-.14-.01-.15-.02-.02-.12.06-.2,0-.16-.11-.27-.37-.32-.4-.15-.1-1.41-.6-1.44-.67-.01-.04.14-.18.12-.21-.03-.05-.97-.33-1.13-.37-.02,0,0,.14-.27.09-.03,0-.62-.29-.28-.31h0Z"/>
          <path class="st105" d="M262.95,45.61c-.25.29-.19-.4-.2-.43-.06-.14-.42.05-.14-.53.17.16.5.78.34.96h0Z"/>
        </g>
        <path class="st139" d="M264.45,47.43l-.11-.86.29.8s-.11.03-.17.05h-.01Z"/>
        <g>
          <path class="st100" d="M262.43,35.01c.41.61.73,1.47.75,2.19,0,.19-.02.3-.06.48-.14.69-.88,1.61-1.56,1.93-.26.06-.3,0-.12-.21l.07-.16c1.47-.83,1.42-2.61.6-3.85l.02-.17c-1.2-1.26-2.9-1.71-4.38-.54v.13c-.61.5-1.03,1.21-1.2,1.95l-.13.06c.04.35.06.69.06,1.02.04.27,0,.49-.23.16-.26-.62-.23-.83-.04-1.51.76-2.71,4.31-4.3,6.21-1.49h.01Z"/>
          <g>
            <path class="st101" d="M257.76,34.69c1.31-1.06,3.32-.61,4.38.54.97,1.36,1,3.32-.69,4.18-1.44.72-4.02.34-4.78-1.12-.17-.47-.21-.96-.23-1.45.07-.66.72-1.76,1.33-2.14h0Z"/>
            <path class="st120" d="M262.14,35.23c-.43-.2-.73-.54-1.2-.73-1.02-.41-2.25-.39-3.18.2,1.32-1.35,3.38-.87,4.38.54h0Z"/>
            <path class="st12" d="M256.67,38.28c-.08-.15-.14-.27-.17-.43-.07-.31-.09-.7-.06-1.02l.23,1.45Z"/>
            <g>
              <path class="st153" d="M260.96,35.2c2.37,2.77-2.27,5.58-3.72,2.9-1.32-2.44,2.05-4.85,3.72-2.9Z"/>
              <g>
                <path class="st65" d="M259.77,34.97s0,.19.01.2c.07.06.24-.12.36-.1.03,0,.57.29.59.31.3.25.52,1.06.54,1.43,0,.04-.11.8-.12.84-.89,2-4.81,1.57-3.7-1.62.01-.03.3-.56.33-.58.02,0,.52.13.11-.17.22.05.65-.52.69-.54.06-.02,1.05.13,1.2.22h0Z"/>
                <path class="st153" d="M258.34,35.39c.13-.11.69-.44.81-.27.04.06-.37.08.03.32.55-.36,1.5.4,1.56,1.16.23,2.52-3.76,2.14-3.18-.14.03-.13.65-.96.78-1.07l.02.13c-.46,1.29,1.55.64.38-.14-.16.05-.29.05-.39,0h0Z"/>
                <path class="st89" d="M258.34,35.39c.82-.58,1.33,1.06.26.97-.53-.05-.58-.74-.26-.97Z"/>
              </g>
            </g>
          </g>
        </g>
        <g>
          <path class="st146" d="M251.42,35.71c.29-.36.58-.13.23.2.04.42.41.33.71.17.15.12.21.08.17-.11l.1-.15v-.05c.33-.31.46-.16.38.46.19.1.28.22.28.38.58-.18.74-.2.52.38.28-.14.63-.08.38.22l.15.84c0,.07-.02.14-.07.21.18.62-.25.81-1.3.57.03.06,0,.12-.05.16l-.12.07c-.89-.3-2.03-.57-2.92-.18l-.13-.04c-.28-.12.07-.1,0-.16-.04-.03-.25-.02-.32-.11,0-.02-.16-.42-.14-.43.02,0,.16.02.23-.03.11-.08.25-.24.35-.34-.1-.14.13-.32.29-.27l.11-.09c.09.04.15-.03.18-.23.31-.45.61-.9.92-1.34,0-.03.05-.07.06-.11v-.02Z"/>
          <path class="st98" d="M251.37,35.82c-.18.64-.49.89-.85,1.37-.08.11.15.41-.36.29.22-.28.59-1.05.69-1.39l.52-.27Z"/>
          <path class="st171" d="M253.15,37.21c.02.14-.64.31-.63.19,0-.09.52-.21.63-.19Z"/>
        </g>
        <g>
          <path class="st155" d="M250.39,34.75l.06.64c.1.22.05.66-.17.81,0,.02-.02.05-.03.07-.22.26-.18-.48-.14-.6.02-.67-.03-1.35-.29-1.98-.2-.05-.5-.4-.46-.59-1.24-.99-2.67-.97-3.92,0l-.03.15c-1.07.84-1.09,2.5-.4,3.56l-.03.15c.1.23,0,.23-.29,0-.5-.65-.66-1.47-.58-2.25-.19.31-.41.09-.58.11.3-.12.3,0,.52-.21.29-.29.31-.7.53-1.09.41-.71,1.08-1.38,1.95-1.59,2.11-.5,3.73.94,3.86,2.84v-.02Z"/>
          <path class="st80" d="M250.1,35.66c.02.21-.05.62.17.54-.22.98-1.12,1.74-2.19,1.93s-2.68-.23-3.4-1.18c.16-.08.17.26.29,0l.18.03c1.49,1.61,4.45.99,4.82-1.19l.14-.13h0Z"/>
          <g>
            <path class="st39" d="M249.35,33.09c.17.19.34.36.46.59.25.63.31,1.31.29,1.98-.33,2.56-3.69,3.05-5.13,1.28-.83-1.02-.76-3.13.46-3.85,1.07-.88,2.82-.78,3.92,0Z"/>
            <path class="st164" d="M249.35,33.09c-1.29-.59-2.64-.75-3.92,0,1.12-1.11,2.82-1.17,3.92,0Z"/>
            <path class="st41" d="M250.1,35.66c-.06-.68-.1-1.32-.29-1.98.34.67.38,1.26.29,1.98Z"/>
            <g>
              <path class="st156" d="M248.26,32.98c2.6.32,1.58,5.36-1.36,4.45-2.01-.63-1.54-3.59.21-4.34.37-.13.77-.2,1.15-.11Z"/>
              <path class="st68" d="M247.1,33.09c.37-.16.74-.25,1.15-.11-.38-.05-.78.02-1.15.11Z"/>
              <g>
                <path class="st5" d="M248.89,33.35s-.02.25,0,.27c0,0,.14-.07.17-.03.9.97.38,3.68-1.41,3.67-2.67-.02-1.97-3.68-.04-4.11.16-.04,1.24.16,1.28.2Z"/>
                <path class="st156" d="M247.68,33.94c.46.1.1-.39.73-.09,2.06.99.44,3.41-1.28,2.77-.57-.21-.83-.92-.7-1.46.06-.26.3-.35.32-.45.04-.18-.11-.29,0-.6l.11.08c-.06.77,1.06.51.75-.14l.07-.11h0Z"/>
                <path class="st91" d="M246.76,34.1c.12-.34.68-.52.92-.16.55.81-1.05,1.29-.92.16Z"/>
              </g>
            </g>
          </g>
        </g>
      </g>
    </g>
  </g>
  <path class="st173" d="M89.92,55.45c.06-.2.11-.56-.06-.81-.39-.56-1.45-.56-2.23-.61-4.63-.1-6.92-.15-8.2,0-.11,0-.84.1-1.73-.05-.45-.1-.84-.15-1.17-.46-.56-.46-.56-1.17-.56-1.32.22-.25.45-.46.67-.71,0,0,.34-.36.67-.71.39-.4,19.09-17.09,44.93-39.72,3.85,2.18,10.38,6.5,15.68,13.95,7.93,11.11,8.15,22.17,7.98,26.43-.17,5.02-1.45,14.31-8.15,23.49-9.32,12.84-25.56,20.49-41.63,20.54-7.7,0-13.9-1.72-17.69-3.05,2.06-2.58,4.13-5.17,6.2-7.76,2.79.76,7.09,1.57,12.28,1.42,15.4-.46,25.39-9.13,26.85-10.4,1.84-1.67,11.33-10.45,11.89-24.4.72-17.96-14.01-29.02-15.68-30.24-7.93,11.52-13.67,20.04-14.46,21.21-.67,1.11-.45,1.52-.39,1.67.11.15.28.2.39.25,5.02.1,8.48.1,9.54,0,.17,0,1.06-.1,1.73.25.34.15.45.36.5.4.17.25.11.56.11.66,0,.25-.06.4-.11.61-.22.51-.72.81-.89.91h-.06c-.39.2-13.84,13.34-44.09,43.02-3.91-1.87-10.1-5.48-15.57-11.72-2.46-2.79-10.6-12.73-10.99-27.35-.61-21.21,15.68-34.45,17.41-35.76,13.45-10.55,28.74-11.01,32.82-11.01,9.38,0,16.69,2.38,20.82,4.11-2.62,2.43-5.24,4.82-7.87,7.25-2.9-.91-7.37-1.98-12.95-1.98-3.57,0-10.05.4-17.13,3.45-10.66,4.56-15.9,12.13-17.47,14.56-1.68,2.64-5.69,9.69-5.36,19.33.11,3.25.84,9.89,5.3,16.94,3.85,6.09,8.76,9.74,11.61,11.57,5.69-7.97,11.38-15.98,17.08-23.99h0v.02h-.02Z"/>
  <path class="st181" d="M218.64,36.67c-.07-2.16-.27-14.11,12.66-22.49,2.43-1.55,11.31-7.16,24.52-6.88,11.18.28,18.66,4.61,21.08,6.05,14.08,8.44,14.01,21.32,13.88,23.66-.07,2.83-.88,9.72-7.27,16.38-4.65,4.83-9.97,7.28-11.05,7.72-8.82,3.89-17.44,3.78-19.13,3.72-9.63-.28-16.1-3.55-18.32-4.67-1.08-.56-5.39-2.83-9.3-7-6.47-6.83-7.01-13.94-7.07-16.49h0ZM254.54,53.05c10.98.11,20.34-7.11,20.95-16.05.6-9.5-8.89-17.77-20.48-17.94-11.92-.17-21.69,8.33-21.08,17.94.6,8.78,9.7,15.99,20.61,16.05h0Z"/>
  <path class="st181" d="M195.41,61.91h-15.76c-7.54-17.78-15.08-35.57-22.7-53.35h15.29c5.18,13.61,10.3,27.23,15.49,40.84,4.92-13.56,9.84-27.17,14.75-40.74h15.08c-3.7,8.71-7.47,17.47-11.11,26.33-3.77,9.08-7.47,18.05-11.05,26.91h0Z"/>
  <path class="st181" d="M363.32,61.86h-13V18.38h-16.84v-10.08h46.07v10.03h-16.23v43.54h0Z"/>
  <path class="st181" d="M296.51,8.35h12.73v43.69h24.04v9.87h-36.77V8.35h0Z"/>
  <path class="st181" d="M314.89,89.77h-2.89c-2.69-3.38-5.32-6.7-8.28-10.4v10.34h-3.5v-15.15h3.7c2.43,3.16,4.92,6.44,7.61,9.97v-10.03h3.37v15.25h0v.02h0Z"/>
  <path class="st181" d="M173.39,89.82v-15.3c4.72-.05,8.22.1,9.56.32.88.16,1.41.42,1.55.53.6.37.88.79,1.08,1.11.4.63.47,1.16.54,1.58.07.32.14,1-.07,1.79-.14.42-.27.95-.81,1.48-.34.32-.74.53-1.01.68.4.1,1.01.37,1.55.9.6.58.67,1.21.81,1.85.07.48.2,1.37-.27,2.48-.2.48-.67,1.42-1.82,2.06-.88.48-1.75.58-2.29.58-3.03.05-5.86-.05-8.82-.05h0ZM176.89,87.08h3.84c.34,0,1.41-.1,2.09-.58.88-.68.81-2.11.07-2.69-.4-.32-1.14-.48-1.35-.48-.34-.05-.54-.1-.74-.1-1.28-.1-3.5,0-3.91,0v3.85h0ZM176.89,80.8c1.69.05,2.96.05,3.5,0,.14,0,.34-.05.6-.1.14-.05.54-.1.88-.32.54-.32.74-.74.81-.95.2-.53.07-.95,0-1.11-.07-.21-.27-.63-.74-.84-.2-.1-.34-.16-.47-.16-.4-.1-.74-.1-.94-.16h-3.57c-.07,1.21-.07,2.43-.07,3.64h0Z"/>
  <path class="st181" d="M269.36,84.07c1.21,1.85,2.43,3.64,3.84,5.65h-3.98c-1.14-1.64-2.36-3.43-3.64-5.28h-2.89v5.33h-3.3v-15.25c1.41,0,7.88-.1,9.5.21l.54.1c1.08.37,1.69,1.06,1.89,1.21.4.48.54.9.67,1.37.2.74.2,1.32.2,1.9,0,.79,0,1.26-.27,1.9-.27.74-.74,1.26-1.08,1.58-.4.48-.94.84-1.48,1.26h0v.02h0ZM262.76,81.59c1.28,0,2.49.05,3.7,0,1.14-.1,2.02-1.11,1.95-2.22,0-.95-.94-2-1.95-2.06-1.28-.1-2.56,0-3.77,0,.07,1.53.07,2.8.07,4.27h0Z"/>
  <path class="st181" d="M215.42,74.47h3.98c-2.15,2.27-4.18,4.43-6.4,6.81,2.43,2.75,4.92,5.49,7.54,8.44h-4.31c-1.89-2.06-3.7-4.06-5.59-6.12-.4.32-.81.63-1.21,1v5.12h-3.5v-15.2h3.5v6.23c2.15-2.22,4.11-4.22,5.99-6.28h0Z"/>
  <path class="st181" d="M356.58,89.82h-3.5c-.4-.9-.88-1.85-1.28-2.8h-6.6c-.4.95-.81,1.85-1.14,2.8h-3.57c2.09-5.28,4.18-10.45,6.26-15.57h3.77c1.89,5.07,3.91,10.24,6.06,15.57h0ZM346.14,84.18c1.55,0,3.03,0,4.58.05-.74-1.95-1.48-3.96-2.29-5.91-.74,2.06-1.48,3.85-2.29,5.86h0Z"/>
  <path class="st181" d="M292,86.82v2.9h-11.25v-15.15h10.91v2.64h-7.61v3.16h6.4v2.69h-6.26v3.75h7.81Z"/>
  <path class="st181" d="M237.31,80.38v2.8h-6.33v3.75h7.95v2.95h-11.45c-.07-5.12-.07-10.18-.14-15.3h11.18v2.64h-7.61v3.16h6.4Z"/>
  <path class="st181" d="M367.43,86.82h7.61v2.9h-10.98v-15.2h3.37v12.3h0Z"/>
  <path class="st181" d="M330.92,89.82h-3.5v-12.56h-5.32v-2.75h13.94v2.64h-5.05c-.07,4.27-.07,8.39-.07,12.67h0Z"/>
  <path class="st181" d="M197.37,89.82h-3.3v-15.3h3.3v15.3Z"/>
</svg>